<?xml version="1.0" encoding="UTF-8" standalone="no"?>
<svg
   xmlns:dc="http://purl.org/dc/elements/1.1/"
   xmlns:cc="http://creativecommons.org/ns#"
   xmlns:rdf="http://www.w3.org/1999/02/22-rdf-syntax-ns#"
   xmlns:svg="http://www.w3.org/2000/svg"
   xmlns="http://www.w3.org/2000/svg"
   xmlns:xlink="http://www.w3.org/1999/xlink"
   xmlns:sodipodi="http://sodipodi.sourceforge.net/DTD/sodipodi-0.dtd"
   xmlns:inkscape="http://www.inkscape.org/namespaces/inkscape"
   inkscape:export-ydpi="85.333336"
   inkscape:export-xdpi="85.333336"
   inkscape:export-filename="/home/nick/.local/share/icons/choc_flat.png"
   sodipodi:docname="hexen.svg"
   inkscape:version="1.0 (4035a4f, 2020-05-01)"
   id="svg3113"
   version="1.1"
   viewBox="0 0 16.933335 16.933265"
   height="63.999741"
   width="64.000008">
  <defs
     id="defs3107">
    <linearGradient
       id="top_edge_highlight">
      <stop
         id="stop2287"
         offset="0"
         style="stop-color:#f5a062;stop-opacity:1;" />
      <stop
         id="stop2289"
         offset="1"
         style="stop-color:#f5a062;stop-opacity:0;" />
    </linearGradient>
    <linearGradient
       gradientUnits="userSpaceOnUse"
       y2="-1516"
       x2="396"
       y1="-1516"
       x1="228"
       id="linearGradient1470"
       xlink:href="#linearGradient1460"
       inkscape:collect="always"
       gradientTransform="matrix(0.05354656,0,0,0.05354656,-51.6315,336.43537)" />
    <linearGradient
       id="linearGradient1460">
      <stop
         id="stop1456"
         offset="0"
         style="stop-color:#f2f2f2;stop-opacity:1;" />
      <stop
         id="stop1458"
         offset="1"
         style="stop-color:#848484;stop-opacity:1;" />
    </linearGradient>
    <linearGradient
       y2="240.90833"
       x2="3.174983"
       y1="240.90833"
       x1="-57.150021"
       gradientTransform="matrix(0.20238069,0,0,0.20238069,41.99312,206.5036)"
       gradientUnits="userSpaceOnUse"
       id="linearGradient3641"
       xlink:href="#linearGradient4156-3-3"
       inkscape:collect="always" />
    <linearGradient
       id="linearGradient4156-3-3">
      <stop
         id="stop4152-3-6"
         offset="0"
         style="stop-color:#8791c6;stop-opacity:1;" />
      <stop
         style="stop-color:#575757;stop-opacity:1;"
         offset="0.08177299"
         id="stop1015-7" />
      <stop
         id="stop1017-5"
         offset="0.47935581"
         style="stop-color:#ffffff;stop-opacity:1;" />
      <stop
         id="stop4154-6-3"
         offset="1"
         style="stop-color:#ffffff;stop-opacity:1;" />
    </linearGradient>
    <linearGradient
       y2="409.18332"
       x2="-40.216667"
       y1="409.18332"
       x1="-46.566666"
       gradientTransform="matrix(0.20238069,0,0,0.20238069,39.851254,169.2352)"
       gradientUnits="userSpaceOnUse"
       id="linearGradient3635"
       xlink:href="#top_edge_shadow"
       inkscape:collect="always" />
    <linearGradient
       id="top_edge_shadow"
       inkscape:collect="always">
      <stop
         id="stop2300"
         offset="0"
         style="stop-color:#4c1e0c;stop-opacity:1;" />
      <stop
         id="stop2302"
         offset="1"
         style="stop-color:#4c1e0c;stop-opacity:0;" />
    </linearGradient>
    <linearGradient
       y2="408.12497"
       x2="23.283333"
       y1="408.12497"
       x1="2.1166666"
       gradientTransform="matrix(0.20238069,0,0,0.20238069,-39.851254,169.2352)"
       gradientUnits="userSpaceOnUse"
       id="linearGradient3633"
       xlink:href="#top_edge_highlight"
       inkscape:collect="always" />
    <linearGradient
       y2="-335.99997"
       x2="-128"
       y1="-415.99997"
       x1="-208"
       gradientTransform="matrix(0.05354656,0,0,0.05354656,-26.357523,283.74558)"
       gradientUnits="userSpaceOnUse"
       id="linearGradient3681"
       xlink:href="#letter_shadow-6"
       inkscape:collect="always" />
    <linearGradient
       id="letter_shadow-6">
      <stop
         style="stop-color:#0b0205;stop-opacity:1;"
         offset="0"
         id="stop1799" />
      <stop
         style="stop-color:#1f0925;stop-opacity:0;"
         offset="1"
         id="stop1801" />
    </linearGradient>
    <linearGradient
       gradientUnits="userSpaceOnUse"
       y2="-139.03336"
       x2="195.79167"
       y1="-170.78336"
       x1="164.04167"
       id="linearGradient1836"
       xlink:href="#linearGradient1834-2"
       inkscape:collect="always"
       gradientTransform="matrix(0.20238069,0,0,0.20238069,-71.550823,291.74973)" />
    <linearGradient
       id="linearGradient1834-2">
      <stop
         style="stop-color:#ff3d19;stop-opacity:1;"
         offset="0"
         id="stop1844-0" />
      <stop
         id="stop3053-2"
         offset="0.5"
         style="stop-color:#f90e0e;stop-opacity:1;" />
      <stop
         style="stop-color:#c90c4f;stop-opacity:1;"
         offset="1"
         id="stop1797-3" />
    </linearGradient>
    <linearGradient
       y2="313.92203"
       x2="51.693195"
       y1="268.56665"
       x1="6.3405561"
       gradientTransform="matrix(0.23613423,0,0,0.23606692,-40.922776,192.49871)"
       gradientUnits="userSpaceOnUse"
       id="linearGradient3665"
       xlink:href="#wrapper-9-6"
       inkscape:collect="always" />
    <linearGradient
       id="wrapper-9-6">
      <stop
         style="stop-color:#923e29;stop-opacity:1;"
         offset="0"
         id="stop1842" />
      <stop
         id="stop1645"
         offset="0.5"
         style="stop-color:#4c1e0c;stop-opacity:1;" />
      <stop
         style="stop-color:#270328;stop-opacity:1;"
         offset="1"
         id="stop1838" />
    </linearGradient>
  </defs>
  <sodipodi:namedview
     fit-margin-right="15"
     fit-margin-left="15"
     fit-margin-bottom="2.857"
     fit-margin-top="2.857"
     inkscape:document-rotation="0"
     inkscape:snap-global="true"
     inkscape:measure-end="0,0"
     inkscape:measure-start="0,0"
     showguides="true"
     inkscape:snap-object-midpoints="false"
     inkscape:snap-grids="true"
     inkscape:snap-smooth-nodes="true"
     inkscape:snap-midpoints="false"
     inkscape:snap-intersection-paths="true"
     inkscape:object-paths="true"
     inkscape:snap-center="true"
     inkscape:window-maximized="1"
     inkscape:window-y="25"
     inkscape:window-x="0"
     inkscape:window-height="997"
     inkscape:window-width="1680"
     inkscape:snap-bbox-edge-midpoints="false"
     inkscape:snap-bbox-midpoints="false"
     inkscape:bbox-nodes="true"
     inkscape:bbox-paths="true"
     inkscape:snap-bbox="true"
     inkscape:snap-nodes="true"
     inkscape:pagecheckerboard="true"
     units="px"
     showgrid="true"
     inkscape:current-layer="g983"
     inkscape:document-units="px"
     inkscape:cy="12.486889"
     inkscape:cx="25.048361"
     inkscape:zoom="5.6568542"
     inkscape:pageshadow="2"
     inkscape:pageopacity="0.0"
     borderopacity="1.0"
     bordercolor="#666666"
     pagecolor="#ffffff"
     id="base">
    <inkscape:grid
       originy="-29.633334"
       originx="-29.633361"
       spacingy="2.1166667"
       spacingx="2.1166667"
       empspacing="8"
       id="grid3658"
       type="xygrid" />
    <inkscape:grid
       originy="-29.633334"
       originx="-29.633361"
       dotted="true"
       empopacity="0"
       empcolor="#3f3fff"
       empspacing="2"
       spacingy="1.0583333"
       spacingx="1.0583333"
       id="grid3660"
       type="xygrid" />
  </sodipodi:namedview>
  <metadata
     id="metadata3110">
    <rdf:RDF>
      <cc:Work
         rdf:about="">
        <dc:format>image/svg+xml</dc:format>
        <dc:type
           rdf:resource="http://purl.org/dc/dcmitype/StillImage" />
        <dc:title></dc:title>
      </cc:Work>
    </rdf:RDF>
  </metadata>
  <g
     transform="translate(-29.633362,-250.43332)"
     id="layer1"
     inkscape:groupmode="layer"
     inkscape:label="Layer 1">
    <g
       transform="translate(73.024998)"
       id="g983">
      <rect
         inkscape:export-filename="/home/nick/.local/share/icons/path3919.png"
         inkscape:export-ydpi="73.363617"
         inkscape:export-xdpi="73.363617"
         style="opacity:1;fill:#c8592a;fill-opacity:1;stroke:#000000;stroke-width:0.00535465;stroke-linecap:round;stroke-linejoin:round;stroke-miterlimit:4;stroke-dasharray:none;stroke-dashoffset:0;stroke-opacity:1;paint-order:stroke markers fill"
         id="rect3083"
         width="8.990469"
         height="15.416073"
         x="-39.420197"
         y="251.19193"
         rx="0.42837244"
         ry="0.42837244" />
      <rect
         inkscape:export-filename="/home/nick/.local/share/icons/path3919.png"
         inkscape:export-ydpi="73.363617"
         inkscape:export-xdpi="73.363617"
         style="opacity:1;fill:url(#linearGradient3633);fill-opacity:1;stroke:none;stroke-width:0.00535466;stroke-linecap:round;stroke-linejoin:round;stroke-miterlimit:4;stroke-dasharray:none;stroke-dashoffset:0;stroke-opacity:1;paint-order:stroke markers fill"
         id="rect3085"
         width="4.2837243"
         height="1.2851174"
         x="-39.422878"
         y="251.18924"
         rx="0.42837244"
         ry="0.42837244" />
      <rect
         transform="scale(-1,1)"
         inkscape:export-filename="/home/nick/.local/share/icons/path3919.png"
         inkscape:export-ydpi="73.363617"
         inkscape:export-xdpi="73.363617"
         ry="0.42837244"
         rx="0.42837244"
         y="251.18924"
         x="30.427063"
         height="1.2851174"
         width="4.2837243"
         id="rect3087"
         style="opacity:0.708;fill:url(#linearGradient3635);fill-opacity:1;stroke:none;stroke-width:0.00535466;stroke-linecap:round;stroke-linejoin:round;stroke-miterlimit:4;stroke-dasharray:none;stroke-dashoffset:0;stroke-opacity:1;paint-order:stroke markers fill" />
      <rect
         inkscape:export-filename="/home/nick/.local/share/icons/path3919.png"
         inkscape:export-ydpi="73.363617"
         inkscape:export-xdpi="73.363617"
         y="251.62029"
         x="-39.420197"
         height="14.987698"
         width="8.990469"
         id="rect3089"
         style="opacity:1;fill:#4c1e0c;fill-opacity:1;stroke:#000000;stroke-width:0.00535465;stroke-linecap:round;stroke-linejoin:round;stroke-miterlimit:4;stroke-dasharray:none;stroke-dashoffset:0;stroke-opacity:1;paint-order:stroke markers fill"
         rx="0.42837244"
         ry="0.42837244" />
      <rect
         inkscape:export-filename="/home/nick/.local/share/icons/path3919.png"
         ry="0.42837244"
         rx="0.42837253"
         style="opacity:1;fill:url(#linearGradient3665);fill-opacity:1;stroke:#000000;stroke-width:0.00535466;stroke-linecap:round;stroke-linejoin:round;stroke-miterlimit:4;stroke-dasharray:none;stroke-dashoffset:0;stroke-opacity:1;paint-order:stroke markers fill"
         id="rect3297"
         width="8.990468"
         height="11.989074"
         x="-39.420208"
         y="254.61891"
         inkscape:export-xdpi="73.363617"
         inkscape:export-ydpi="73.363617" />
      <rect
         transform="scale(-1,1)"
         inkscape:export-filename="/home/nick/.local/share/icons/path3919.png"
         y="254.61623"
         x="30.427065"
         height="1.285114"
         width="8.995821"
         id="rect3097-5"
         style="opacity:1;fill:url(#linearGradient3641);fill-opacity:1;stroke:none;stroke-width:0.00535465;stroke-linecap:round;stroke-linejoin:round;stroke-miterlimit:4;stroke-dasharray:none;stroke-dashoffset:0;stroke-opacity:1;paint-order:stroke markers fill"
         inkscape:export-xdpi="73.363617"
         inkscape:export-ydpi="73.363617" />
      <path
         sodipodi:nodetypes="ccccccccccccccccccsscc"
         inkscape:export-ydpi="73.363617"
         inkscape:export-xdpi="73.363617"
         inkscape:export-filename="/home/nick/.local/share/icons/path3919.png"
         style="opacity:0.407;fill:url(#linearGradient3681);fill-opacity:1;stroke:none;stroke-width:0.0535466px;stroke-linecap:butt;stroke-linejoin:miter;stroke-opacity:1"
         d="m -32.065878,257.29849 -2.070537,2.36933 -0.37357,-0.0985 -0.145581,0.15384 -1.617167,-1.61717 -0.606687,-0.036 1.79747,2.10369 -0.201324,0.21283 -2.247909,-2.24791 -0.16273,0.14432 -0.0037,-0.003 -0.04539,0.0471 -0.09705,0.1006 2.229398,2.2294 0.128533,-0.0962 0.01767,0.0175 -2.818096,2.97801 3.052154,3.05215 h 4.372202 c 0.237317,0 0.428371,-0.19105 0.428371,-0.42837 v -7.24489 z"
         id="path3429"
         inkscape:connector-curvature="0" />
      <g
         inkscape:export-filename="/home/nick/.local/share/icons/path3919.png"
         transform="matrix(0.20238069,0,0,0.20238069,-39.851253,185.51335)"
         id="g3121"
         inkscape:export-xdpi="73.363617"
         inkscape:export-ydpi="73.363617">
        <g
           id="g3119"
           transform="translate(-4.2333331,80.433333)">
          <rect
             rx="1.0583333"
             y="248.31665"
             x="8.4666662"
             height="10.583334"
             width="2.1166668"
             id="rect3113"
             style="opacity:1;fill:#c8592a;fill-opacity:1;stroke:none;stroke-width:0.0264583;stroke-linecap:round;stroke-linejoin:round;stroke-miterlimit:4;stroke-dasharray:none;stroke-dashoffset:0;stroke-opacity:1;paint-order:stroke markers fill"
             ry="1.0583333" />
          <rect
             ry="1.0583333"
             style="opacity:1;fill:#cb5e2e;fill-opacity:1;stroke:none;stroke-width:0.0264583;stroke-linecap:round;stroke-linejoin:round;stroke-miterlimit:4;stroke-dasharray:none;stroke-dashoffset:0;stroke-opacity:1;paint-order:stroke markers fill"
             id="rect3115"
             width="8.4666662"
             height="2.1166694"
             x="8.4666662"
             y="248.31665"
             rx="1.0583333" />
          <circle
             r="1.0583333"
             cy="249.37498"
             cx="9.5249996"
             id="circle3117"
             style="opacity:1;fill:#f5a062;fill-opacity:1;stroke:none;stroke-width:0.0264583;stroke-linecap:round;stroke-linejoin:round;stroke-miterlimit:4;stroke-dasharray:none;stroke-dashoffset:0;stroke-opacity:1;paint-order:stroke markers fill" />
        </g>
      </g>
      <g
         inkscape:export-filename="/home/nick/.local/share/icons/path3919.png"
         inkscape:export-ydpi="73.363617"
         inkscape:export-xdpi="73.363617"
         id="g3131"
         transform="matrix(0.20238069,0,0,0.20238069,-37.709389,185.51335)">
        <g
           transform="translate(-4.2333331,80.433333)"
           id="g3129">
          <rect
             ry="1.0583333"
             style="opacity:1;fill:#c8592a;fill-opacity:1;stroke:none;stroke-width:0.0264583;stroke-linecap:round;stroke-linejoin:round;stroke-miterlimit:4;stroke-dasharray:none;stroke-dashoffset:0;stroke-opacity:1;paint-order:stroke markers fill"
             id="rect3123"
             width="2.1166668"
             height="10.583334"
             x="8.4666662"
             y="248.31665"
             rx="1.0583333" />
          <rect
             rx="1.0583333"
             y="248.31665"
             x="8.4666662"
             height="2.1166694"
             width="8.4666662"
             id="rect3125"
             style="opacity:1;fill:#cb5e2e;fill-opacity:1;stroke:none;stroke-width:0.0264583;stroke-linecap:round;stroke-linejoin:round;stroke-miterlimit:4;stroke-dasharray:none;stroke-dashoffset:0;stroke-opacity:1;paint-order:stroke markers fill"
             ry="1.0583333" />
          <circle
             style="opacity:1;fill:#f5a062;fill-opacity:1;stroke:none;stroke-width:0.0264583;stroke-linecap:round;stroke-linejoin:round;stroke-miterlimit:4;stroke-dasharray:none;stroke-dashoffset:0;stroke-opacity:1;paint-order:stroke markers fill"
             id="circle3127"
             cx="9.5249996"
             cy="249.37498"
             r="1.0583333" />
        </g>
      </g>
      <g
         inkscape:export-filename="/home/nick/.local/share/icons/path3919.png"
         transform="matrix(0.20238069,0,0,0.20238069,-35.567528,185.51335)"
         id="g3141"
         inkscape:export-xdpi="73.363617"
         inkscape:export-ydpi="73.363617">
        <g
           id="g3139"
           transform="translate(-4.2333331,80.433333)">
          <rect
             rx="1.0583333"
             y="248.31665"
             x="8.4666662"
             height="10.583334"
             width="2.1166668"
             id="rect3133"
             style="opacity:1;fill:#c8592a;fill-opacity:1;stroke:none;stroke-width:0.0264583;stroke-linecap:round;stroke-linejoin:round;stroke-miterlimit:4;stroke-dasharray:none;stroke-dashoffset:0;stroke-opacity:1;paint-order:stroke markers fill"
             ry="1.0583333" />
          <rect
             ry="1.0583333"
             style="opacity:1;fill:#cb5e2e;fill-opacity:1;stroke:none;stroke-width:0.0264583;stroke-linecap:round;stroke-linejoin:round;stroke-miterlimit:4;stroke-dasharray:none;stroke-dashoffset:0;stroke-opacity:1;paint-order:stroke markers fill"
             id="rect3135"
             width="8.4666662"
             height="2.1166694"
             x="8.4666662"
             y="248.31665"
             rx="1.0583333" />
          <circle
             r="1.0583333"
             cy="249.37498"
             cx="9.5249996"
             id="circle3137"
             style="opacity:1;fill:#f5a062;fill-opacity:1;stroke:none;stroke-width:0.0264583;stroke-linecap:round;stroke-linejoin:round;stroke-miterlimit:4;stroke-dasharray:none;stroke-dashoffset:0;stroke-opacity:1;paint-order:stroke markers fill" />
        </g>
      </g>
      <g
         inkscape:export-filename="/home/nick/.local/share/icons/path3919.png"
         inkscape:export-ydpi="73.363617"
         inkscape:export-xdpi="73.363617"
         id="g3151"
         transform="matrix(0.20238069,0,0,0.20238069,-33.425667,185.51335)">
        <g
           transform="translate(-4.2333331,80.433333)"
           id="g3149">
          <rect
             ry="1.0583333"
             style="opacity:1;fill:#c8592a;fill-opacity:1;stroke:none;stroke-width:0.0264583;stroke-linecap:round;stroke-linejoin:round;stroke-miterlimit:4;stroke-dasharray:none;stroke-dashoffset:0;stroke-opacity:1;paint-order:stroke markers fill"
             id="rect3143"
             width="2.1166668"
             height="10.583334"
             x="8.4666662"
             y="248.31665"
             rx="1.0583333" />
          <rect
             rx="1.0583333"
             y="248.31665"
             x="8.4666662"
             height="2.1166694"
             width="8.4666662"
             id="rect3145"
             style="opacity:1;fill:#cb5e2e;fill-opacity:1;stroke:none;stroke-width:0.0264583;stroke-linecap:round;stroke-linejoin:round;stroke-miterlimit:4;stroke-dasharray:none;stroke-dashoffset:0;stroke-opacity:1;paint-order:stroke markers fill"
             ry="1.0583333" />
          <circle
             style="opacity:1;fill:#f5a062;fill-opacity:1;stroke:none;stroke-width:0.0264583;stroke-linecap:round;stroke-linejoin:round;stroke-miterlimit:4;stroke-dasharray:none;stroke-dashoffset:0;stroke-opacity:1;paint-order:stroke markers fill"
             id="circle3147"
             cx="9.5249996"
             cy="249.37498"
             r="1.0583333" />
        </g>
      </g>
      <path
         id="path3099"
         d="m -38.137767,254.61622 1.285117,1.28512 v -1.28512 z m 0,0 -1.285118,1.28512 h 1.285118 z m 1.285117,1.28512 h 1.285117 v -1.28512 z m 1.285117,-1.28512 1.285118,1.28512 v -1.28512 z m 1.285118,1.28512 h 1.285117 v -1.28512 z m 1.285117,-1.28512 1.285118,1.28512 v -1.28512 z m 1.285118,1.28512 h 1.285117 v -1.28512 z"
         style="fill:url(#linearGradient1470);fill-opacity:1;stroke:none;stroke-width:0.0535466px;stroke-linecap:butt;stroke-linejoin:miter;stroke-opacity:1"
         inkscape:connector-curvature="0" />
      <path
         sodipodi:nodetypes="cccccccccccccccccccccccccccccccccccccccccccccccccccccccccccccccccccccccscscscccccccccccccccccccccc"
         inkscape:export-ydpi="73.363617"
         inkscape:export-xdpi="73.363617"
         inkscape:export-filename="/home/nick/.local/share/icons/path3919.png"
         inkscape:transform-center-y="0.21417661"
         inkscape:transform-center-x="0.21412567"
         inkscape:connector-curvature="0"
         id="path3431"
         d="m -37.709383,257.18651 c -0.118292,0 -0.214186,0.0959 -0.214186,0.21419 6.4e-5,0.0568 0.02267,0.11121 0.06285,0.15133 l -2.03e-4,2e-4 2.081204,2.0812 c 0.0092,0.0145 0.01417,0.0313 0.01423,0.0485 -2.1e-5,0.0502 -0.0407,0.0909 -0.09088,0.0909 -0.01745,-3e-5 -0.0345,-0.005 -0.04915,-0.0145 l -0.1529,-0.15301 -1.02e-4,1.1e-4 c -0.04017,-0.0402 -0.09469,-0.0629 -0.151543,-0.0629 -0.118291,0 -0.214185,0.0959 -0.214185,0.21419 6.4e-5,0.0567 0.02263,0.11112 0.06275,0.15123 l -1.07e-4,10e-5 0.339791,0.33979 -2.204717,2.20462 2.02e-4,2e-4 c -0.08033,0.0803 -0.125504,0.18912 -0.125603,0.30266 1.76e-4,0.145 0.07369,0.28006 0.195362,0.35893 l -0.127593,0.1276 c -0.04316,0.0404 -0.06769,0.0969 -0.06777,0.15603 0,0.11829 0.09589,0.21419 0.214185,0.21419 0.05682,-4e-5 0.111293,-0.0226 0.151438,-0.0629 l 1.07e-4,1.1e-4 2.576508,-2.57682 c 0.01378,-0.008 0.02939,-0.0121 0.04528,-0.0121 0.05019,1e-5 0.09087,0.0407 0.09088,0.0909 -3.6e-5,0.0193 -0.0062,0.038 -0.01757,0.0535 l -1.070513,1.07052 4.04e-4,4e-4 c -0.04022,0.0401 -0.06287,0.0945 -0.06296,0.15134 0,0.11829 0.09589,0.21418 0.214185,0.21418 0.05682,-3e-5 0.111293,-0.0226 0.151438,-0.0629 l 2.02e-4,2e-4 1.562159,-1.56205 2.201369,2.20137 c 0.04035,0.0421 0.09609,0.0658 0.154366,0.0659 0.118292,0 0.214186,-0.0959 0.214186,-0.21419 -8e-6,-0.0568 -0.02258,-0.11128 -0.06275,-0.15144 l -2.160162,-2.16016 0.384237,-0.38424 -4.25e-4,-4.1e-4 c 0.08024,-0.0802 0.125371,-0.18899 0.125499,-0.30245 -5.4e-5,-0.11348 -0.04517,-0.2223 -0.125395,-0.30256 l 2.22e-4,-2e-4 -0.01862,-0.0186 1.731689,-1.73169 -1.07e-4,-10e-5 c 0.08042,-0.0803 0.125635,-0.18924 0.125708,-0.30287 0,-0.23659 -0.19179,-0.42838 -0.428373,-0.42838 -0.113511,1.3e-4 -0.222329,0.0453 -0.302557,0.12561 l -2.23e-4,-2e-4 -1.588093,1.58809 h -0.25098 c -0.113547,1e-4 -0.22241,0.0453 -0.302664,0.12561 l -2.02e-4,-2.1e-4 -0.302978,0.30298 h -0.376288 l -0.870342,-0.87047 c 0.08362,-0.0313 0.139052,-0.1112 0.139096,-0.20049 -6.4e-5,-0.0568 -0.02267,-0.11121 -0.06285,-0.15133 l 1.07e-4,-1.1e-4 -0.426175,-0.42617 -0.0023,-0.002 -1.07e-4,1.1e-4 c -0.04014,-0.0401 -0.09457,-0.0627 -0.151333,-0.0627 -0.08921,1.3e-4 -0.169,0.0555 -0.200276,0.13909 l -0.504822,-0.50493 -2.02e-4,2.1e-4 c -0.04016,-0.0402 -0.09463,-0.0627 -0.151434,-0.0627 z m 0,0.85674 c -0.118292,0 -0.214186,0.0959 -0.214186,0.21419 0,0.11829 0.09589,0.21418 0.214186,0.21418 0.118291,0 0.214185,-0.0959 0.214185,-0.21418 0,-0.11829 -0.09589,-0.21419 -0.214185,-0.21419 z m 0.642558,0.64256 c -0.118291,0 -0.214185,0.0959 -0.214185,0.21419 6.4e-5,0.0568 0.02271,0.11131 0.06296,0.15143 l -1.07e-4,1.1e-4 0.423771,0.42335 c 0.04042,0.0431 0.09685,0.0676 0.155935,0.0677 0.118291,0 0.214185,-0.0959 0.214185,-0.21419 -8e-6,-0.0568 -0.02258,-0.11127 -0.06275,-0.15143 l 1.07e-4,-1.1e-4 -0.428478,-0.42848 -1.02e-4,1.1e-4 c -0.04015,-0.0401 -0.09458,-0.0626 -0.151332,-0.0627 z m 0.428374,3.85536 c -0.118292,0 -0.214188,0.0959 -0.214188,0.21418 0,0.11829 0.0959,0.21419 0.214188,0.21419 0.118291,0 0.214185,-0.0959 0.214185,-0.21419 0,-0.11829 -0.09589,-0.21418 -0.214185,-0.21418 z m -0.428268,0.42837 c -0.118294,0 -0.214188,0.0959 -0.214188,0.21419 0,0.11829 0.0959,0.21418 0.214188,0.21418 0.118291,0 0.214185,-0.0959 0.214185,-0.21418 0,-0.1183 -0.09589,-0.21419 -0.214185,-0.21419 z"
         style="color:#000000;font-style:normal;font-variant:normal;font-weight:normal;font-stretch:normal;font-size:medium;line-height:normal;font-family:sans-serif;font-variant-ligatures:normal;font-variant-position:normal;font-variant-caps:normal;font-variant-numeric:normal;font-variant-alternates:normal;font-feature-settings:normal;text-indent:0;text-align:start;text-decoration:none;text-decoration-line:none;text-decoration-style:solid;text-decoration-color:#000000;letter-spacing:normal;word-spacing:normal;text-transform:none;writing-mode:lr-tb;direction:ltr;text-orientation:mixed;dominant-baseline:auto;baseline-shift:baseline;text-anchor:start;white-space:normal;shape-padding:0;clip-rule:nonzero;display:inline;overflow:visible;visibility:visible;opacity:1;isolation:auto;mix-blend-mode:normal;color-interpolation:sRGB;color-interpolation-filters:linearRGB;solid-color:#000000;solid-opacity:1;vector-effect:none;fill:url(#linearGradient1836);fill-opacity:1;fill-rule:nonzero;stroke:none;stroke-width:0.428372;stroke-linecap:butt;stroke-linejoin:miter;stroke-miterlimit:4;stroke-dasharray:none;stroke-dashoffset:0;stroke-opacity:1;color-rendering:auto;image-rendering:auto;shape-rendering:auto;text-rendering:auto;enable-background:accumulate" />
    </g>
    <circle
       r="0"
       cy="186.93332"
       cx="25.399996"
       id="path4069"
       style="opacity:1;fill:none;fill-opacity:1;stroke:#5e5e5e;stroke-width:8.46667;stroke-linecap:round;stroke-linejoin:round;stroke-miterlimit:4;stroke-dasharray:none;stroke-dashoffset:0;stroke-opacity:1;paint-order:stroke markers fill" />
  </g>
</svg>
