<?xml version="1.0" encoding="UTF-8" standalone="no"?>
<svg
   xmlns:dc="http://purl.org/dc/elements/1.1/"
   xmlns:cc="http://creativecommons.org/ns#"
   xmlns:rdf="http://www.w3.org/1999/02/22-rdf-syntax-ns#"
   xmlns:svg="http://www.w3.org/2000/svg"
   xmlns="http://www.w3.org/2000/svg"
   xmlns:xlink="http://www.w3.org/1999/xlink"
   xmlns:sodipodi="http://sodipodi.sourceforge.net/DTD/sodipodi-0.dtd"
   xmlns:inkscape="http://www.inkscape.org/namespaces/inkscape"
   inkscape:export-ydpi="85.333336"
   inkscape:export-xdpi="85.333336"
   inkscape:export-filename="/home/nick/.local/share/icons/choc_flat.png"
   sodipodi:docname="setup-wrench.svg"
   inkscape:version="1.0 (4035a4f, 2020-05-01)"
   id="svg3113"
   version="1.1"
   viewBox="0 0 16.933335 16.933265"
   height="63.999741"
   width="64.000008">
  <defs
     id="defs3107">
    <linearGradient
       id="top_edge_highlight">
      <stop
         id="stop2287"
         offset="0"
         style="stop-color:#f5a062;stop-opacity:1;" />
      <stop
         id="stop2289"
         offset="1"
         style="stop-color:#f5a062;stop-opacity:0;" />
    </linearGradient>
    <linearGradient
       gradientUnits="userSpaceOnUse"
       y2="-1516"
       x2="396"
       y1="-1516"
       x1="228"
       id="linearGradient1470"
       xlink:href="#linearGradient1460"
       inkscape:collect="always"
       gradientTransform="matrix(0.05354656,0,0,0.05354656,-51.6315,336.43537)" />
    <linearGradient
       id="linearGradient1460">
      <stop
         id="stop1456"
         offset="0"
         style="stop-color:#f2f2f2;stop-opacity:1;" />
      <stop
         id="stop1458"
         offset="1"
         style="stop-color:#848484;stop-opacity:1;" />
    </linearGradient>
    <linearGradient
       y2="240.90833"
       x2="3.174983"
       y1="240.90833"
       x1="-57.150021"
       gradientTransform="matrix(0.20238069,0,0,0.20238069,41.99312,206.5036)"
       gradientUnits="userSpaceOnUse"
       id="linearGradient3641"
       xlink:href="#linearGradient4156-3-3"
       inkscape:collect="always" />
    <linearGradient
       id="linearGradient4156-3-3">
      <stop
         id="stop4152-3-6"
         offset="0"
         style="stop-color:#8791c6;stop-opacity:1;" />
      <stop
         style="stop-color:#575757;stop-opacity:1;"
         offset="0.08177299"
         id="stop1015-7" />
      <stop
         id="stop1017-5"
         offset="0.47935581"
         style="stop-color:#ffffff;stop-opacity:1;" />
      <stop
         id="stop4154-6-3"
         offset="1"
         style="stop-color:#ffffff;stop-opacity:1;" />
    </linearGradient>
    <linearGradient
       y2="409.18332"
       x2="-40.216667"
       y1="409.18332"
       x1="-46.566666"
       gradientTransform="matrix(0.20238069,0,0,0.20238069,39.851254,169.2352)"
       gradientUnits="userSpaceOnUse"
       id="linearGradient3635"
       xlink:href="#top_edge_shadow"
       inkscape:collect="always" />
    <linearGradient
       id="top_edge_shadow"
       inkscape:collect="always">
      <stop
         id="stop2300"
         offset="0"
         style="stop-color:#4c1e0c;stop-opacity:1;" />
      <stop
         id="stop2302"
         offset="1"
         style="stop-color:#4c1e0c;stop-opacity:0;" />
    </linearGradient>
    <linearGradient
       y2="408.12497"
       x2="23.283333"
       y1="408.12497"
       x1="2.1166666"
       gradientTransform="matrix(0.20238069,0,0,0.20238069,-39.851254,169.2352)"
       gradientUnits="userSpaceOnUse"
       id="linearGradient3633"
       xlink:href="#top_edge_highlight"
       inkscape:collect="always" />
    <linearGradient
       gradientUnits="userSpaceOnUse"
       y2="-132.6833"
       x2="260.35004"
       y1="-177.13333"
       x1="215.89999"
       id="linearGradient1466"
       xlink:href="#linearGradient1464"
       inkscape:collect="always"
       gradientTransform="matrix(0.20238069,0,0,0.20238069,-83.116881,291.74973)" />
    <linearGradient
       id="linearGradient1464">
      <stop
         id="stop1460"
         offset="0"
         style="stop-color:#1b4061;stop-opacity:1;" />
      <stop
         style="stop-color:#041440;stop-opacity:1;"
         offset="0.5"
         id="stop1468" />
      <stop
         id="stop1462"
         offset="1"
         style="stop-color:#041440;stop-opacity:1;" />
    </linearGradient>
    <linearGradient
       y2="-166.55002"
       x2="233.89166"
       y1="-136.91663"
       x1="263.52505"
       gradientTransform="matrix(0.20238069,0,0,0.20238069,-83.116881,291.74973)"
       gradientUnits="userSpaceOnUse"
       id="linearGradient1687"
       xlink:href="#linearGradient4156"
       inkscape:collect="always" />
    <linearGradient
       id="linearGradient4156">
      <stop
         id="stop4152"
         offset="0"
         style="stop-color:#878787;stop-opacity:1;" />
      <stop
         id="stop4154"
         offset="1"
         style="stop-color:#ffffff;stop-opacity:1;" />
    </linearGradient>
    <linearGradient
       y2="313.03745"
       x2="41.726948"
       y1="293.0766"
       x1="21.771786"
       gradientTransform="matrix(0.23613421,0,0,0.2360669,-40.92278,192.49872)"
       gradientUnits="userSpaceOnUse"
       id="linearGradient3675"
       xlink:href="#letter_shadow-6-2"
       inkscape:collect="always" />
    <linearGradient
       id="letter_shadow-6-2">
      <stop
         style="stop-color:#000000;stop-opacity:1;"
         offset="0"
         id="stop1455" />
      <stop
         style="stop-color:#1f0925;stop-opacity:0;"
         offset="1"
         id="stop1457" />
    </linearGradient>
  </defs>
  <sodipodi:namedview
     fit-margin-right="15"
     fit-margin-left="15"
     fit-margin-bottom="2.857"
     fit-margin-top="2.857"
     inkscape:document-rotation="0"
     inkscape:snap-global="true"
     inkscape:measure-end="0,0"
     inkscape:measure-start="0,0"
     showguides="true"
     inkscape:snap-object-midpoints="false"
     inkscape:snap-grids="true"
     inkscape:snap-smooth-nodes="true"
     inkscape:snap-midpoints="false"
     inkscape:snap-intersection-paths="true"
     inkscape:object-paths="true"
     inkscape:snap-center="true"
     inkscape:window-maximized="1"
     inkscape:window-y="25"
     inkscape:window-x="0"
     inkscape:window-height="997"
     inkscape:window-width="1680"
     inkscape:snap-bbox-edge-midpoints="false"
     inkscape:snap-bbox-midpoints="false"
     inkscape:bbox-nodes="true"
     inkscape:bbox-paths="true"
     inkscape:snap-bbox="true"
     inkscape:snap-nodes="true"
     inkscape:pagecheckerboard="true"
     units="px"
     showgrid="false"
     inkscape:current-layer="g983"
     inkscape:document-units="px"
     inkscape:cy="12.486889"
     inkscape:cx="25.048361"
     inkscape:zoom="2"
     inkscape:pageshadow="2"
     inkscape:pageopacity="0.0"
     borderopacity="1.0"
     bordercolor="#666666"
     pagecolor="#ffffff"
     id="base">
    <inkscape:grid
       originy="-29.633334"
       originx="-29.633361"
       spacingy="2.1166667"
       spacingx="2.1166667"
       empspacing="8"
       id="grid3658"
       type="xygrid" />
    <inkscape:grid
       originy="-29.633334"
       originx="-29.633361"
       dotted="true"
       empopacity="0"
       empcolor="#3f3fff"
       empspacing="2"
       spacingy="1.0583333"
       spacingx="1.0583333"
       id="grid3660"
       type="xygrid" />
  </sodipodi:namedview>
  <metadata
     id="metadata3110">
    <rdf:RDF>
      <cc:Work
         rdf:about="">
        <dc:format>image/svg+xml</dc:format>
        <dc:type
           rdf:resource="http://purl.org/dc/dcmitype/StillImage" />
        <dc:title></dc:title>
      </cc:Work>
    </rdf:RDF>
  </metadata>
  <g
     transform="translate(-29.633362,-250.43332)"
     id="layer1"
     inkscape:groupmode="layer"
     inkscape:label="Layer 1">
    <g
       transform="translate(73.024998)"
       id="g983">
      <rect
         inkscape:export-filename="/home/nick/.local/share/icons/path3919.png"
         inkscape:export-ydpi="73.363617"
         inkscape:export-xdpi="73.363617"
         style="opacity:1;fill:#c8592a;fill-opacity:1;stroke:#000000;stroke-width:0.00535465;stroke-linecap:round;stroke-linejoin:round;stroke-miterlimit:4;stroke-dasharray:none;stroke-dashoffset:0;stroke-opacity:1;paint-order:stroke markers fill"
         id="rect3083"
         width="8.990469"
         height="15.416073"
         x="-39.420197"
         y="251.19193"
         rx="0.42837244"
         ry="0.42837244" />
      <rect
         inkscape:export-filename="/home/nick/.local/share/icons/path3919.png"
         inkscape:export-ydpi="73.363617"
         inkscape:export-xdpi="73.363617"
         style="opacity:1;fill:url(#linearGradient3633);fill-opacity:1;stroke:none;stroke-width:0.00535466;stroke-linecap:round;stroke-linejoin:round;stroke-miterlimit:4;stroke-dasharray:none;stroke-dashoffset:0;stroke-opacity:1;paint-order:stroke markers fill"
         id="rect3085"
         width="4.2837243"
         height="1.2851174"
         x="-39.422878"
         y="251.18924"
         rx="0.42837244"
         ry="0.42837244" />
      <rect
         transform="scale(-1,1)"
         inkscape:export-filename="/home/nick/.local/share/icons/path3919.png"
         inkscape:export-ydpi="73.363617"
         inkscape:export-xdpi="73.363617"
         ry="0.42837244"
         rx="0.42837244"
         y="251.18924"
         x="30.427063"
         height="1.2851174"
         width="4.2837243"
         id="rect3087"
         style="opacity:0.708;fill:url(#linearGradient3635);fill-opacity:1;stroke:none;stroke-width:0.00535466;stroke-linecap:round;stroke-linejoin:round;stroke-miterlimit:4;stroke-dasharray:none;stroke-dashoffset:0;stroke-opacity:1;paint-order:stroke markers fill" />
      <rect
         inkscape:export-filename="/home/nick/.local/share/icons/path3919.png"
         inkscape:export-ydpi="73.363617"
         inkscape:export-xdpi="73.363617"
         y="251.62029"
         x="-39.420197"
         height="14.987698"
         width="8.990469"
         id="rect3089"
         style="opacity:1;fill:#4c1e0c;fill-opacity:1;stroke:#000000;stroke-width:0.00535465;stroke-linecap:round;stroke-linejoin:round;stroke-miterlimit:4;stroke-dasharray:none;stroke-dashoffset:0;stroke-opacity:1;paint-order:stroke markers fill"
         rx="0.42837244"
         ry="0.42837244" />
      <rect
         inkscape:export-filename="/home/nick/.local/share/icons/path3919.png"
         inkscape:transform-center-y="-2.2010176e-05"
         ry="0.42837244"
         rx="0.42837253"
         style="opacity:1;fill:url(#linearGradient1466);fill-opacity:1;stroke:#000000;stroke-width:0.00535466;stroke-linecap:round;stroke-linejoin:round;stroke-miterlimit:4;stroke-dasharray:none;stroke-dashoffset:0;stroke-opacity:1;paint-order:stroke markers fill"
         id="rect3363"
         width="8.990468"
         height="11.989074"
         x="-39.420208"
         y="254.61891"
         inkscape:export-xdpi="73.363617"
         inkscape:export-ydpi="73.363617" />
      <rect
         transform="scale(-1,1)"
         inkscape:export-filename="/home/nick/.local/share/icons/path3919.png"
         y="254.61623"
         x="30.427065"
         height="1.285114"
         width="8.995821"
         id="rect3097-5"
         style="opacity:1;fill:url(#linearGradient3641);fill-opacity:1;stroke:none;stroke-width:0.00535465;stroke-linecap:round;stroke-linejoin:round;stroke-miterlimit:4;stroke-dasharray:none;stroke-dashoffset:0;stroke-opacity:1;paint-order:stroke markers fill"
         inkscape:export-xdpi="73.363617"
         inkscape:export-ydpi="73.363617" />
      <path
         inkscape:export-ydpi="73.363617"
         inkscape:export-xdpi="73.363617"
         inkscape:export-filename="/home/nick/.local/share/icons/path3919.png"
         id="path3365"
         d="m -35.388795,257.28282 -0.366145,1.81797 0.907885,1.22519 -0.07959,1.2141 -0.06526,-0.003 -0.327556,0.96384 h -1.01e-4 v 2e-4 l -0.327556,0.96363 h 0.231965 l -0.15541,1.56718 1.575963,1.57596 h 3.136449 c 0.237318,0 0.428371,-0.19105 0.428371,-0.42837 v -4.10081 -1.12458 l -3.255151,-3.25515 -0.4655,0.82213 z"
         style="opacity:0.35;fill:url(#linearGradient3675);fill-opacity:1;stroke:#000000;stroke-width:0.00535466;stroke-linecap:round;stroke-linejoin:round;stroke-miterlimit:4;stroke-dasharray:none;stroke-dashoffset:0;stroke-opacity:1;paint-order:stroke markers fill"
         inkscape:connector-curvature="0" />
      <g
         inkscape:export-filename="/home/nick/.local/share/icons/path3919.png"
         transform="matrix(0.20238069,0,0,0.20238069,-39.851253,185.51335)"
         id="g3121"
         inkscape:export-xdpi="73.363617"
         inkscape:export-ydpi="73.363617">
        <g
           id="g3119"
           transform="translate(-4.2333331,80.433333)">
          <rect
             rx="1.0583333"
             y="248.31665"
             x="8.4666662"
             height="10.583334"
             width="2.1166668"
             id="rect3113"
             style="opacity:1;fill:#c8592a;fill-opacity:1;stroke:none;stroke-width:0.0264583;stroke-linecap:round;stroke-linejoin:round;stroke-miterlimit:4;stroke-dasharray:none;stroke-dashoffset:0;stroke-opacity:1;paint-order:stroke markers fill"
             ry="1.0583333" />
          <rect
             ry="1.0583333"
             style="opacity:1;fill:#cb5e2e;fill-opacity:1;stroke:none;stroke-width:0.0264583;stroke-linecap:round;stroke-linejoin:round;stroke-miterlimit:4;stroke-dasharray:none;stroke-dashoffset:0;stroke-opacity:1;paint-order:stroke markers fill"
             id="rect3115"
             width="8.4666662"
             height="2.1166694"
             x="8.4666662"
             y="248.31665"
             rx="1.0583333" />
          <circle
             r="1.0583333"
             cy="249.37498"
             cx="9.5249996"
             id="circle3117"
             style="opacity:1;fill:#f5a062;fill-opacity:1;stroke:none;stroke-width:0.0264583;stroke-linecap:round;stroke-linejoin:round;stroke-miterlimit:4;stroke-dasharray:none;stroke-dashoffset:0;stroke-opacity:1;paint-order:stroke markers fill" />
        </g>
      </g>
      <g
         inkscape:export-filename="/home/nick/.local/share/icons/path3919.png"
         inkscape:export-ydpi="73.363617"
         inkscape:export-xdpi="73.363617"
         id="g3131"
         transform="matrix(0.20238069,0,0,0.20238069,-37.709389,185.51335)">
        <g
           transform="translate(-4.2333331,80.433333)"
           id="g3129">
          <rect
             ry="1.0583333"
             style="opacity:1;fill:#c8592a;fill-opacity:1;stroke:none;stroke-width:0.0264583;stroke-linecap:round;stroke-linejoin:round;stroke-miterlimit:4;stroke-dasharray:none;stroke-dashoffset:0;stroke-opacity:1;paint-order:stroke markers fill"
             id="rect3123"
             width="2.1166668"
             height="10.583334"
             x="8.4666662"
             y="248.31665"
             rx="1.0583333" />
          <rect
             rx="1.0583333"
             y="248.31665"
             x="8.4666662"
             height="2.1166694"
             width="8.4666662"
             id="rect3125"
             style="opacity:1;fill:#cb5e2e;fill-opacity:1;stroke:none;stroke-width:0.0264583;stroke-linecap:round;stroke-linejoin:round;stroke-miterlimit:4;stroke-dasharray:none;stroke-dashoffset:0;stroke-opacity:1;paint-order:stroke markers fill"
             ry="1.0583333" />
          <circle
             style="opacity:1;fill:#f5a062;fill-opacity:1;stroke:none;stroke-width:0.0264583;stroke-linecap:round;stroke-linejoin:round;stroke-miterlimit:4;stroke-dasharray:none;stroke-dashoffset:0;stroke-opacity:1;paint-order:stroke markers fill"
             id="circle3127"
             cx="9.5249996"
             cy="249.37498"
             r="1.0583333" />
        </g>
      </g>
      <g
         inkscape:export-filename="/home/nick/.local/share/icons/path3919.png"
         transform="matrix(0.20238069,0,0,0.20238069,-35.567528,185.51335)"
         id="g3141"
         inkscape:export-xdpi="73.363617"
         inkscape:export-ydpi="73.363617">
        <g
           id="g3139"
           transform="translate(-4.2333331,80.433333)">
          <rect
             rx="1.0583333"
             y="248.31665"
             x="8.4666662"
             height="10.583334"
             width="2.1166668"
             id="rect3133"
             style="opacity:1;fill:#c8592a;fill-opacity:1;stroke:none;stroke-width:0.0264583;stroke-linecap:round;stroke-linejoin:round;stroke-miterlimit:4;stroke-dasharray:none;stroke-dashoffset:0;stroke-opacity:1;paint-order:stroke markers fill"
             ry="1.0583333" />
          <rect
             ry="1.0583333"
             style="opacity:1;fill:#cb5e2e;fill-opacity:1;stroke:none;stroke-width:0.0264583;stroke-linecap:round;stroke-linejoin:round;stroke-miterlimit:4;stroke-dasharray:none;stroke-dashoffset:0;stroke-opacity:1;paint-order:stroke markers fill"
             id="rect3135"
             width="8.4666662"
             height="2.1166694"
             x="8.4666662"
             y="248.31665"
             rx="1.0583333" />
          <circle
             r="1.0583333"
             cy="249.37498"
             cx="9.5249996"
             id="circle3137"
             style="opacity:1;fill:#f5a062;fill-opacity:1;stroke:none;stroke-width:0.0264583;stroke-linecap:round;stroke-linejoin:round;stroke-miterlimit:4;stroke-dasharray:none;stroke-dashoffset:0;stroke-opacity:1;paint-order:stroke markers fill" />
        </g>
      </g>
      <g
         inkscape:export-filename="/home/nick/.local/share/icons/path3919.png"
         inkscape:export-ydpi="73.363617"
         inkscape:export-xdpi="73.363617"
         id="g3151"
         transform="matrix(0.20238069,0,0,0.20238069,-33.425667,185.51335)">
        <g
           transform="translate(-4.2333331,80.433333)"
           id="g3149">
          <rect
             ry="1.0583333"
             style="opacity:1;fill:#c8592a;fill-opacity:1;stroke:none;stroke-width:0.0264583;stroke-linecap:round;stroke-linejoin:round;stroke-miterlimit:4;stroke-dasharray:none;stroke-dashoffset:0;stroke-opacity:1;paint-order:stroke markers fill"
             id="rect3143"
             width="2.1166668"
             height="10.583334"
             x="8.4666662"
             y="248.31665"
             rx="1.0583333" />
          <rect
             rx="1.0583333"
             y="248.31665"
             x="8.4666662"
             height="2.1166694"
             width="8.4666662"
             id="rect3145"
             style="opacity:1;fill:#cb5e2e;fill-opacity:1;stroke:none;stroke-width:0.0264583;stroke-linecap:round;stroke-linejoin:round;stroke-miterlimit:4;stroke-dasharray:none;stroke-dashoffset:0;stroke-opacity:1;paint-order:stroke markers fill"
             ry="1.0583333" />
          <circle
             style="opacity:1;fill:#f5a062;fill-opacity:1;stroke:none;stroke-width:0.0264583;stroke-linecap:round;stroke-linejoin:round;stroke-miterlimit:4;stroke-dasharray:none;stroke-dashoffset:0;stroke-opacity:1;paint-order:stroke markers fill"
             id="circle3147"
             cx="9.5249996"
             cy="249.37498"
             r="1.0583333" />
        </g>
      </g>
      <path
         id="path3099"
         d="m -38.137767,254.61622 1.285117,1.28512 v -1.28512 z m 0,0 -1.285118,1.28512 h 1.285118 z m 1.285117,1.28512 h 1.285117 v -1.28512 z m 1.285117,-1.28512 1.285118,1.28512 v -1.28512 z m 1.285118,1.28512 h 1.285117 v -1.28512 z m 1.285117,-1.28512 1.285118,1.28512 v -1.28512 z m 1.285118,1.28512 h 1.285117 v -1.28512 z"
         style="fill:url(#linearGradient1470);fill-opacity:1;stroke:none;stroke-width:0.0535466px;stroke-linecap:butt;stroke-linejoin:miter;stroke-opacity:1"
         inkscape:connector-curvature="0" />
      <path
         inkscape:export-ydpi="73.363617"
         inkscape:export-xdpi="73.363617"
         inkscape:export-filename="/home/nick/.local/share/icons/path3919.png"
         sodipodi:nodetypes="sccccccccscccsccsssccscccsccccccccsccccccccccccsssccccccccccccsscscs"
         inkscape:connector-curvature="0"
         id="path1684"
         d="m -35.567528,257.18639 c -0.01419,0 -0.02839,0.002 -0.04236,0.004 -0.0065,0.001 -0.01247,0.004 -0.01872,0.006 -0.0068,0.002 -0.01374,0.004 -0.02039,0.006 -0.01129,0.005 -0.02188,0.0106 -0.03211,0.0169 -0.0014,8.1e-4 -0.003,10e-4 -0.0044,0.002 -0.01255,0.008 -0.02411,0.0178 -0.03462,0.0284 -0.451112,0.40409 -0.700403,0.66549 -0.704157,1.22122 -2e-6,0.51053 0.255408,0.96124 0.645173,1.23199 -0.001,0.0177 -0.0026,0.0352 -0.0026,0.0531 v 1.20459 0.81679 0.54875 0.42827 c 0,0.0179 0.0016,0.0355 0.0026,0.0531 -8.09e-4,6e-4 -0.0016,10e-4 -0.0026,0.002 v 1.65848 c 0,0.47317 0.383576,0.85675 0.856744,0.85675 0.473166,0 0.856744,-0.38358 0.856744,-0.85675 v -1.65859 c -8.09e-4,-6e-4 -0.0016,-0.001 -0.0026,-0.002 0.001,-0.0177 0.0026,-0.0352 0.0026,-0.0531 v -0.42827 -0.54875 -0.8168 -1.20458 c 0,-0.0179 -0.0016,-0.0355 -0.0026,-0.0531 0.389758,-0.27076 0.645169,-0.72146 0.645169,-1.23199 -0.0037,-0.55573 -0.253047,-0.81714 -0.704159,-1.22122 -0.0105,-0.0107 -0.02206,-0.0202 -0.03462,-0.0285 -0.0014,-10e-4 -0.003,-0.002 -0.0044,-0.002 -0.01022,-0.006 -0.02081,-0.0123 -0.03211,-0.0169 -0.0066,-0.003 -0.01356,-0.004 -0.02039,-0.006 -0.0063,-0.002 -0.01224,-0.004 -0.01872,-0.006 -0.01396,-0.003 -0.02817,-0.004 -0.04236,-0.004 -0.01419,0 -0.02839,0.002 -0.04236,0.004 -0.0065,10e-4 -0.01247,0.004 -0.01872,0.006 -0.0068,0.002 -0.01374,0.004 -0.02039,0.006 -0.01129,0.005 -0.02188,0.0105 -0.03211,0.0169 -0.0014,8.1e-4 -0.003,10e-4 -0.0044,0.002 -0.0242,0.0159 -0.04481,0.0366 -0.06076,0.0608 -4.6e-5,10e-5 -1.61e-4,1.6e-4 -2.02e-4,2e-4 -8.1e-4,10e-4 -0.0014,0.003 -0.0022,0.004 -0.0064,0.0102 -0.01233,0.0208 -0.01694,0.0321 -0.0028,0.007 -0.0043,0.0136 -0.0064,0.0204 -0.0018,0.006 -0.0042,0.0122 -0.0055,0.0187 -0.003,0.0147 -0.0043,0.0296 -0.0042,0.0446 v 1.06874 c 0,0.23658 -0.191788,0.42837 -0.428373,0.42837 -0.236583,0 -0.428373,-0.19179 -0.428373,-0.42837 v -1.06874 c 1.6e-4,-0.0149 -0.0012,-0.0299 -0.0042,-0.0446 -0.0012,-0.006 -0.0037,-0.0125 -0.0055,-0.0187 -0.002,-0.007 -0.0036,-0.0137 -0.0064,-0.0204 -0.0046,-0.0113 -0.01054,-0.0219 -0.01694,-0.0321 -8.09e-4,-0.001 -0.0014,-0.003 -0.0022,-0.004 -5.3e-5,-6e-5 -1.61e-4,-1.1e-4 -2.02e-4,-2.1e-4 -0.01595,-0.0242 -0.03656,-0.0448 -0.06076,-0.0608 -0.0014,-10e-4 -0.003,-0.002 -0.0044,-0.002 -0.01022,-0.006 -0.02081,-0.0123 -0.0321,-0.0169 -0.0066,-0.003 -0.01356,-0.004 -0.02039,-0.006 -0.0063,-0.002 -0.01224,-0.004 -0.01872,-0.006 -0.01396,-0.003 -0.02817,-0.004 -0.04236,-0.004 z m 0.642559,6.85408 c 0.236583,0 0.428371,0.19178 0.428371,0.42837 0,0.23658 -0.191788,0.42837 -0.428371,0.42837 -0.236585,0 -0.428373,-0.19179 -0.428373,-0.42837 0,-0.23659 0.191788,-0.42837 0.428373,-0.42837 z"
         style="opacity:1;fill:url(#linearGradient1687);fill-opacity:1;stroke:none;stroke-width:0.428372;stroke-linecap:round;stroke-linejoin:round;stroke-miterlimit:4;stroke-dasharray:none;stroke-dashoffset:0;stroke-opacity:1;paint-order:stroke markers fill" />
    </g>
    <circle
       r="0"
       cy="186.93332"
       cx="25.399996"
       id="path4069"
       style="opacity:1;fill:none;fill-opacity:1;stroke:#5e5e5e;stroke-width:8.46667;stroke-linecap:round;stroke-linejoin:round;stroke-miterlimit:4;stroke-dasharray:none;stroke-dashoffset:0;stroke-opacity:1;paint-order:stroke markers fill" />
  </g>
</svg>
