<?xml version="1.0" encoding="UTF-8" standalone="no"?>
<svg
   xmlns:dc="http://purl.org/dc/elements/1.1/"
   xmlns:cc="http://creativecommons.org/ns#"
   xmlns:rdf="http://www.w3.org/1999/02/22-rdf-syntax-ns#"
   xmlns:svg="http://www.w3.org/2000/svg"
   xmlns="http://www.w3.org/2000/svg"
   xmlns:xlink="http://www.w3.org/1999/xlink"
   xmlns:sodipodi="http://sodipodi.sourceforge.net/DTD/sodipodi-0.dtd"
   xmlns:inkscape="http://www.inkscape.org/namespaces/inkscape"
   version="1.1"
   inkscape:output_extension="org.inkscape.output.svg.inkscape"
   width="48.000000px"
   height="48.000000px"
   id="svg249"
   sodipodi:version="0.32"
   inkscape:version="1.0 (4035a4f, 2020-05-01)"
   sodipodi:docname="wadfile.svg"
   inkscape:export-filename="/home/jimmac/gfx/novell/pdes/trunk/docs/BIGmime-text.png"
   inkscape:export-xdpi="240.00000"
   inkscape:export-ydpi="240.00000">
  <defs
     id="defs3">
    <linearGradient
       id="letter_shadow-6-2-3">
      <stop
         id="stop2177"
         offset="0"
         style="stop-color:#494949;stop-opacity:0.60818714" />
      <stop
         id="stop2179"
         offset="1"
         style="stop-color:#1f0925;stop-opacity:0;" />
    </linearGradient>
    <linearGradient
       id="linearGradient3520"
       inkscape:collect="always">
      <stop
         id="stop3522"
         offset="0"
         style="stop-color:#000000;stop-opacity:0.41295547" />
      <stop
         id="stop3524"
         offset="1"
         style="stop-color:#000000;stop-opacity:0;" />
    </linearGradient>
    <linearGradient
       y2="12.189651"
       x2="-30.558546"
       y1="10.211342"
       x1="-18.618725"
       gradientTransform="matrix(0.5946829,0,0,0.5927814,-62.327355,-48.725799)"
       gradientUnits="userSpaceOnUse"
       id="linearGradient13786"
       xlink:href="#linearGradient3520"
       inkscape:collect="always" />
    <linearGradient
       id="linearGradient3671">
      <stop
         id="stop3673"
         offset="0"
         style="stop-color:#ffffff;stop-opacity:1;" />
      <stop
         style="stop-color:#ffffff;stop-opacity:1;"
         offset="0.47533694"
         id="stop3691" />
      <stop
         id="stop3675"
         offset="1"
         style="stop-color:#ffffff;stop-opacity:0;" />
    </linearGradient>
    <radialGradient
       r="7.0421038"
       fy="10.108011"
       fx="-26.305403"
       cy="10.108011"
       cx="-26.305403"
       gradientTransform="matrix(0.2626416,-0.1805803,0.4842474,0.7055033,-76.987986,-55.026495)"
       gradientUnits="userSpaceOnUse"
       id="radialGradient13784"
       xlink:href="#linearGradient3671"
       inkscape:collect="always" />
    <linearGradient
       id="linearGradient3656"
       inkscape:collect="always">
      <stop
         id="stop3658"
         offset="0"
         style="stop-color:#ffffff;stop-opacity:1;" />
      <stop
         id="stop3660"
         offset="1"
         style="stop-color:#ffffff;stop-opacity:0;" />
    </linearGradient>
    <linearGradient
       y2="7.4241643"
       x2="-22.611664"
       y1="9.5694666"
       x1="-24.756966"
       gradientTransform="translate(-90,-60)"
       gradientUnits="userSpaceOnUse"
       id="linearGradient13792"
       xlink:href="#linearGradient3656"
       inkscape:collect="always" />
    <linearGradient
       id="linearGradient3741"
       inkscape:collect="always">
      <stop
         id="stop3743"
         offset="0"
         style="stop-color:#ffffff;stop-opacity:1;" />
      <stop
         id="stop3745"
         offset="1"
         style="stop-color:#ffffff;stop-opacity:0;" />
    </linearGradient>
    <radialGradient
       r="17"
       fy="5.2999997"
       fx="4"
       cy="5.2999997"
       cx="4"
       gradientTransform="matrix(1.8860258,0,0,1.1764706,-3.5441033,-4.2352941)"
       gradientUnits="userSpaceOnUse"
       id="radialGradient13636"
       xlink:href="#linearGradient3741"
       inkscape:collect="always" />
    <linearGradient
       id="linearGradient3613"
       inkscape:collect="always">
      <stop
         id="stop3615"
         offset="0"
         style="stop-color:#888a85;stop-opacity:1" />
      <stop
         id="stop3617"
         offset="1"
         style="stop-color:#babdb6;stop-opacity:1" />
    </linearGradient>
    <linearGradient
       y2="-22.502075"
       x2="-62.75"
       y1="49.020683"
       x1="-47.5"
       gradientTransform="translate(-90,-60)"
       gradientUnits="userSpaceOnUse"
       id="linearGradient13634"
       xlink:href="#linearGradient3613"
       inkscape:collect="always" />
    <linearGradient
       id="linearGradient3683">
      <stop
         style="stop-color:#f6f6f5;stop-opacity:1;"
         offset="0"
         id="stop3685" />
      <stop
         style="stop-color:#d3d7cf;stop-opacity:1"
         offset="1"
         id="stop3689" />
    </linearGradient>
    <radialGradient
       r="18.000002"
       fy="35.357208"
       fx="-30.249996"
       cy="35.357208"
       cx="-30.249996"
       gradientTransform="matrix(3.9957492,0,0,1.9350367,0.62141,-91.167422)"
       gradientUnits="userSpaceOnUse"
       id="radialGradient13632"
       xlink:href="#linearGradient3683"
       inkscape:collect="always" />
    <linearGradient
       y2="39.999443"
       x2="25.058096"
       y1="47.027729"
       x1="25.058096"
       gradientUnits="userSpaceOnUse"
       id="linearGradient13630"
       xlink:href="#linearGradient3702"
       inkscape:collect="always" />
    <radialGradient
       r="2.5"
       fy="43.5"
       fx="4.9929786"
       cy="43.5"
       cx="4.9929786"
       gradientTransform="matrix(2.003784,0,0,1.4,-20.01187,-104.4)"
       gradientUnits="userSpaceOnUse"
       id="radialGradient13628"
       xlink:href="#linearGradient3688"
       inkscape:collect="always" />
    <radialGradient
       r="2.5"
       fy="43.5"
       fx="4.9929786"
       cy="43.5"
       cx="4.9929786"
       gradientTransform="matrix(2.003784,0,0,1.4,27.98813,-17.4)"
       gradientUnits="userSpaceOnUse"
       id="radialGradient13626"
       xlink:href="#linearGradient3688"
       inkscape:collect="always" />
    <linearGradient
       y2="39.999443"
       x2="25.058096"
       y1="47.027729"
       x1="25.058096"
       gradientUnits="userSpaceOnUse"
       id="linearGradient13624"
       xlink:href="#linearGradient3702"
       inkscape:collect="always" />
    <radialGradient
       r="2.5"
       fy="43.5"
       fx="4.9929786"
       cy="43.5"
       cx="4.9929786"
       gradientTransform="matrix(2.003784,0,0,1.4,-20.01187,-104.4)"
       gradientUnits="userSpaceOnUse"
       id="radialGradient13622"
       xlink:href="#linearGradient3688"
       inkscape:collect="always" />
    <radialGradient
       r="2.5"
       fy="43.5"
       fx="4.9929786"
       cy="43.5"
       cx="4.9929786"
       gradientTransform="matrix(2.003784,0,0,1.4,27.98813,-17.4)"
       gradientUnits="userSpaceOnUse"
       id="radialGradient13620"
       xlink:href="#linearGradient3688"
       inkscape:collect="always" />
    <linearGradient
       id="linearGradient3702">
      <stop
         id="stop3704"
         offset="0"
         style="stop-color:black;stop-opacity:0;" />
      <stop
         style="stop-color:black;stop-opacity:1;"
         offset="0.5"
         id="stop3710" />
      <stop
         id="stop3706"
         offset="1"
         style="stop-color:black;stop-opacity:0;" />
    </linearGradient>
    <linearGradient
       id="linearGradient3688"
       inkscape:collect="always">
      <stop
         id="stop3690"
         offset="0"
         style="stop-color:black;stop-opacity:1;" />
      <stop
         id="stop3692"
         offset="1"
         style="stop-color:black;stop-opacity:0;" />
    </linearGradient>
    <linearGradient
       gradientTransform="matrix(0.79262445,0,0,0.79262445,16.544452,142.87638)"
       inkscape:collect="always"
       xlink:href="#letter_top-3"
       id="linearGradient1568"
       x1="-1.0583302"
       y1="-170.78336"
       x2="24.341698"
       y2="-145.38333"
       gradientUnits="userSpaceOnUse" />
    <linearGradient
       id="letter_top-3">
      <stop
         style="stop-color:#6af3fb;stop-opacity:1"
         offset="0"
         id="stop1316-6" />
      <stop
         style="stop-color:#28629e;stop-opacity:1"
         offset="1"
         id="stop1318-7" />
    </linearGradient>
    <linearGradient
       gradientTransform="matrix(0.79262445,0,0,0.79262445,16.544452,142.87638)"
       inkscape:collect="always"
       xlink:href="#letter_bottom-5"
       id="linearGradient1576"
       x1="4.508985"
       y1="-157.53206"
       x2="20.10836"
       y2="-139.03333"
       gradientUnits="userSpaceOnUse" />
    <linearGradient
       id="letter_bottom-5">
      <stop
         style="stop-color:#ffdf25;stop-opacity:1"
         offset="0"
         id="stop1332-3" />
      <stop
         style="stop-color:#e37a09;stop-opacity:1"
         offset="1"
         id="stop1334-5" />
    </linearGradient>
    <linearGradient
       id="letter_shadow-6-2-3-8">
      <stop
         style="stop-color:#760794;stop-opacity:1;"
         offset="0"
         id="stop2336" />
      <stop
         style="stop-color:#1f0925;stop-opacity:0;"
         offset="1"
         id="stop2338" />
    </linearGradient>
    <linearGradient
       gradientTransform="translate(38.132607,-34.619594)"
       gradientUnits="userSpaceOnUse"
       y2="50.196384"
       x2="-22.040627"
       y1="70.946388"
       x1="5.3392448"
       id="linearGradient2251"
       xlink:href="#letter_shadow-6-2-3"
       inkscape:collect="always" />
  </defs>
  <sodipodi:namedview
     inkscape:window-maximized="0"
     inkscape:document-rotation="0"
     inkscape:showpageshadow="false"
     id="base"
     pagecolor="#ffffff"
     bordercolor="#666"
     borderopacity="1"
     inkscape:pageopacity="0.0"
     inkscape:pageshadow="2"
     inkscape:zoom="2"
     inkscape:cx="23.552074"
     inkscape:cy="18.802184"
     inkscape:current-layer="layer5"
     showgrid="false"
     inkscape:grid-bbox="true"
     inkscape:document-units="px"
     inkscape:window-width="1048"
     inkscape:window-height="872"
     inkscape:window-x="571"
     inkscape:window-y="38" />
  <metadata
     id="metadata4">
    <rdf:RDF>
      <cc:Work
         rdf:about="">
        <dc:format>image/svg+xml</dc:format>
        <dc:type
           rdf:resource="http://purl.org/dc/dcmitype/StillImage" />
        <dc:title></dc:title>
        <dc:subject>
          <rdf:Bag>
            <rdf:li>text</rdf:li>
            <rdf:li>plaintext</rdf:li>
            <rdf:li>regular</rdf:li>
            <rdf:li>document</rdf:li>
          </rdf:Bag>
        </dc:subject>
        <cc:license
           rdf:resource="" />
        <dc:creator>
          <cc:Agent>
            <dc:title>Lapo Calamandrei</dc:title>
          </cc:Agent>
        </dc:creator>
        <dc:source />
        <dc:date />
        <dc:rights>
          <cc:Agent>
            <dc:title />
          </cc:Agent>
        </dc:rights>
        <dc:publisher>
          <cc:Agent>
            <dc:title />
          </cc:Agent>
        </dc:publisher>
        <dc:identifier />
        <dc:relation />
        <dc:language />
        <dc:coverage />
        <dc:description />
        <dc:contributor>
          <cc:Agent>
            <dc:title />
          </cc:Agent>
        </dc:contributor>
      </cc:Work>
    </rdf:RDF>
  </metadata>
  <g
     inkscape:label="Shadow"
     id="layer6"
     inkscape:groupmode="layer" />
  <g
     id="layer1"
     inkscape:label="Base"
     inkscape:groupmode="layer"
     style="display:inline" />
  <g
     style="display:inline"
     inkscape:label="Text"
     id="layer5"
     inkscape:groupmode="layer">
    <g
       transform="translate(150,60)"
       id="g13794"
       style="display:inline">
      <g
         style="display:inline"
         id="g13584"
         transform="translate(0,-60)">
        <rect
           y="0"
           x="-150"
           height="48"
           width="48"
           id="rect13586"
           style="opacity:0;fill:#000000;fill-opacity:1;stroke:none;stroke-width:1;stroke-miterlimit:4;stroke-dasharray:none;display:inline" />
        <g
           id="g13588">
          <g
             style="opacity:0.65587045;display:inline"
             id="g13590"
             inkscape:label="Shadow"
             transform="matrix(1.0464281,0,0,0.8888889,-151.18571,5.7222396)">
            <g
               id="g13592"
               style="opacity:0.4"
               transform="matrix(1.052632,0,0,1.285713,-1.263158,-13.42854)">
              <rect
                 y="40"
                 x="38"
                 height="7"
                 width="5"
                 id="rect13594"
                 style="opacity:1;fill:url(#radialGradient13620);fill-opacity:1;stroke:none;stroke-width:1;stroke-linecap:round;stroke-linejoin:miter;stroke-miterlimit:4;stroke-dasharray:none;stroke-opacity:1" />
              <rect
                 transform="scale(-1,-1)"
                 y="-47"
                 x="-10"
                 height="7"
                 width="5"
                 id="rect13596"
                 style="opacity:1;fill:url(#radialGradient13622);fill-opacity:1;stroke:none;stroke-width:1;stroke-linecap:round;stroke-linejoin:miter;stroke-miterlimit:4;stroke-dasharray:none;stroke-opacity:1" />
              <rect
                 y="40"
                 x="10"
                 height="7.0000005"
                 width="28"
                 id="rect13598"
                 style="opacity:1;fill:url(#linearGradient13624);fill-opacity:1;stroke:none;stroke-width:1;stroke-linecap:round;stroke-linejoin:miter;stroke-miterlimit:4;stroke-dasharray:none;stroke-opacity:1" />
            </g>
          </g>
          <g
             style="display:inline"
             id="g13600"
             inkscape:label="Shadow"
             transform="matrix(0.9548466,0,0,0.5555562,-148.98776,19.888875)">
            <g
               id="g13602"
               style="opacity:0.4"
               transform="matrix(1.052632,0,0,1.285713,-1.263158,-13.42854)">
              <rect
                 y="40"
                 x="38"
                 height="7"
                 width="5"
                 id="rect13604"
                 style="opacity:1;fill:url(#radialGradient13626);fill-opacity:1;stroke:none;stroke-width:1;stroke-linecap:round;stroke-linejoin:miter;stroke-miterlimit:4;stroke-dasharray:none;stroke-opacity:1" />
              <rect
                 transform="scale(-1,-1)"
                 y="-47"
                 x="-10"
                 height="7"
                 width="5"
                 id="rect13606"
                 style="opacity:1;fill:url(#radialGradient13628);fill-opacity:1;stroke:none;stroke-width:1;stroke-linecap:round;stroke-linejoin:miter;stroke-miterlimit:4;stroke-dasharray:none;stroke-opacity:1" />
              <rect
                 y="40"
                 x="10"
                 height="7.0000005"
                 width="28"
                 id="rect13608"
                 style="opacity:1;fill:url(#linearGradient13630);fill-opacity:1;stroke:none;stroke-width:1;stroke-linecap:round;stroke-linejoin:miter;stroke-miterlimit:4;stroke-dasharray:none;stroke-opacity:1" />
            </g>
          </g>
          <path
             style="fill:url(#radialGradient13632);fill-opacity:1;stroke:url(#linearGradient13634);stroke-width:1;stroke-miterlimit:4;display:inline"
             d="M -141.46875,-56.5 C -142.58997,-56.5 -143.5,-55.589966 -143.5,-54.46875 L -143.5,-17.53125 C -143.5,-16.410033 -142.58997,-15.5 -141.46875,-15.5 L -110.53125,-15.5 C -109.41004,-15.5 -108.5,-16.410034 -108.5,-17.53125 C -108.5,-27.447917 -108.5,-37.364583 -108.5,-47.28125 C -108.75793,-49.746835 -110.13765,-51.573876 -111.78125,-53.21875 C -113.42485,-54.863625 -115.16982,-56.452007 -117.71875,-56.5 C -125.63542,-56.5 -133.55208,-56.5 -141.46875,-56.5 z"
             transform="translate(0,60)"
             id="path13610"
             sodipodi:nodetypes="cccccccscc" />
          <path
             sodipodi:type="inkscape:offset"
             inkscape:radius="-0.4861359"
             inkscape:original="M 8.53125 3.5 C 7.410033 3.5 6.5 4.4100329 6.5 5.53125 L 6.5 42.46875 C 6.5 43.589967 7.4100329 44.5 8.53125 44.5 L 39.46875 44.5 C 40.589967 44.5 41.5 43.589966 41.5 42.46875 C 41.5 42.46875 41.5 19 41.5 17.5 C 41.5 16 41 13 39 11 C 37 9 36 8 34 6 C 32 4 29 3.5 27.5 3.5 C 26 3.5 8.5312499 3.5 8.53125 3.5 z "
             style="opacity:0.68016196;fill:url(#radialGradient13636);fill-opacity:1;stroke:none;stroke-width:1;stroke-miterlimit:4;display:inline"
             id="path13612"
             d="M 8.53125,4 C 7.6730803,4 7,4.6730802 7,5.53125 L 7,42.46875 C 7,43.32692 7.6730802,44 8.53125,44 L 39.46875,44 C 40.326919,44 41,43.326918 41,42.46875 C 41,42.46875 41,19 41,17.5 C 41,16.10803 40.513021,13.200521 38.65625,11.34375 C 36.65625,9.34375 35.65625,8.34375 33.65625,6.34375 C 31.799479,4.4869792 28.89197,4 27.5,4 C 26,4 8.53125,4 8.53125,4 z"
             transform="translate(-150,0)" />
          <path
             style="fill:none;fill-opacity:1;stroke:url(#linearGradient13792);stroke-width:1;stroke-miterlimit:4;display:inline"
             d="M -141.46875,-55.5 C -142.05192,-55.5 -142.5,-55.051916 -142.5,-54.46875 L -142.5,-17.53125 C -142.5,-16.948085 -142.05191,-16.5 -141.46875,-16.5 L -110.53125,-16.5 C -109.94808,-16.5 -109.5,-16.948086 -109.5,-17.53125 C -109.5,-17.53125 -109.5,-41 -109.5,-42.5 C -109.5,-42.606586 -109.52415,-42.779716 -109.53125,-42.90625 C -109.53125,-44.658248 -109.53125,-47.01807 -109.53125,-47.28125 C -109.53125,-48.038629 -109.86422,-49.800936 -110.875,-50.8125 C -112.18988,-52.128398 -112.84137,-52.8091 -114.15625,-54.125 C -115.16704,-55.136562 -116.96195,-55.46875 -117.71875,-55.46875 C -118.06477,-55.46875 -120.11232,-55.46875 -122.09375,-55.46875 C -122.22028,-55.475855 -122.39341,-55.5 -122.5,-55.5 C -124,-55.5 -141.46875,-55.5 -141.46875,-55.5 z"
             transform="translate(0,60)"
             id="path13618" />
        </g>
      </g>
      <g
         id="g13771"
         transform="translate(-36.006942,-8.993441)">
        <path
           sodipodi:nodetypes="ccccczc"
           id="path13676"
           d="M -81.704642,-47 C -82.600168,-47 -81.731767,-46.679215 -80.83822,-46.274007 C -79.944674,-45.868798 -78.473456,-44.361864 -79,-42 C -74.43068,-42.707107 -73.851802,-39.822428 -73.644912,-39.074576 C -73.438023,-38.326725 -73.000134,-37.391796 -73.000134,-38.288084 C -72.981865,-40.743928 -74.834804,-42.438635 -76.123279,-43.874197 C -77.411755,-45.309758 -79.348756,-46.692333 -81.704642,-47 z"
           style="fill:url(#radialGradient13784);fill-opacity:1;stroke:none;stroke-width:1;stroke-miterlimit:4;display:inline" />
        <path
           sodipodi:nodetypes="ccccc"
           id="path13678"
           d="M -80.994821,-46.345411 C -80.400137,-46.345411 -80,-42.5 -80,-40 C -77,-40 -74.29634,-39.548186 -74,-39 C -74.20689,-39.747852 -74.538563,-42.773398 -79,-42 C -78.442483,-44.500797 -80.212993,-46.107705 -80.994821,-46.345411 z"
           style="opacity:0.87854249;fill:url(#linearGradient13786);fill-opacity:1;stroke:none;stroke-width:1;stroke-miterlimit:4;display:inline" />
      </g>
    </g>
    <path
       d="m 17.154091,6.1421253 c -2.230458,0.08705 -3.946483,2.4951567 -3.291015,4.6308587 0.217022,0.917218 0.882087,1.615099 1.548828,2.238281 0.01641,8.579176 -0.0328,17.160563 0.02456,25.73836 0.185471,2.206143 2.637746,3.822448 4.739191,3.094234 1.532915,-0.500488 2.41979,-1.975113 3.588908,-2.989357 2.753857,-2.786435 5.576577,-5.509409 8.287927,-8.334962 0.466984,-0.638954 -0.254906,0.261268 0.433633,-0.701634 0.180716,-0.379276 0.294229,-0.790059 0.3125,-1.210938 -0.01301,0.603267 0.06885,-0.859211 0.03516,-1.16914 -0.02191,-4.978405 0.04379,-9.959631 -0.03277,-14.936282 -0.251509,-3.37734 -3.252324,-6.2519667 -6.637409,-6.3587097 -2.905203,-0.01997 -5.811078,-0.0028 -8.716539,-0.0085 0.1709,0.0031 -0.277713,-0.0027 -0.292969,0.0078 z"
       style="display:inline;opacity:0.42222222;fill:url(#linearGradient2251);fill-opacity:1;stroke:none;stroke-width:3.35544;stroke-linecap:round;stroke-linejoin:bevel;stroke-miterlimit:4;stroke-dasharray:none;stroke-dashoffset:48.048;stroke-opacity:1;paint-order:stroke markers fill"
       id="path1854-2-5" />
    <path
       inkscape:export-ydpi="10.279594"
       inkscape:export-xdpi="10.279594"
       inkscape:connector-curvature="0"
       id="path1852"
       d="m 25.771925,19.253389 -6.4e-4,5.033055 -3.355124,3.355353 3.15e-4,-5.032967 -5.033165,5.033174 1.59e-4,10.039253 c -0.0016,0.121905 0.009,0.243764 0.03361,0.363711 0.0016,0.0063 0.004,0.01243 0.0048,0.01887 0.01,0.04613 0.02124,0.09197 0.03519,0.137202 0.0055,0.0168 0.01157,0.03298 0.0172,0.04954 0.01157,0.03384 0.02307,0.06761 0.03686,0.100774 0.01593,0.0386 0.03416,0.0761 0.05287,0.113053 0.004,0.0082 0.0071,0.0168 0.01189,0.02497 0.157724,0.300356 0.403287,0.545943 0.70362,0.703677 0.0082,0.004 0.01673,0.0079 0.02497,0.01189 0.03702,0.0187 0.07451,0.03694 0.113044,0.05287 0.03321,0.0138 0.06698,0.02528 0.100751,0.03685 0.01656,0.0056 0.03274,0.01204 0.04954,0.01719 0.04526,0.01394 0.09118,0.02513 0.137204,0.03519 0.0063,0.0017 0.01244,0.004 0.01886,0.0047 0.222418,0.04566 0.451725,0.04566 0.674135,0 0.0063,-0.0017 0.01253,-0.0032 0.01886,-0.0047 0.04605,-0.01006 0.09197,-0.02124 0.137203,-0.03519 0.0168,-0.0047 0.03297,-0.01158 0.04954,-0.01719 0.03385,-0.01158 0.06761,-0.02306 0.100759,-0.03685 0.03852,-0.01594 0.07601,-0.03409 0.113036,-0.05287 0.0082,-0.004 0.01688,-0.0079 0.02497,-0.01189 0.160871,-0.08449 0.305541,-0.194454 0.430039,-0.324398 l 2.92263,-2.922825 1.797148,-1.796871 c 0.0016,-0.0017 0.0024,-0.0032 0.004,-0.004 l 5.29112,-5.291495 c 0.129944,-0.124497 0.239887,-0.269176 0.324373,-0.430053 4.1e-4,-6.15e-4 8.8e-4,-0.0016 0.0017,-0.0024 0.004,-0.0071 0.0071,-0.01538 0.01062,-0.0229 0.0187,-0.03702 0.03685,-0.07451 0.05286,-0.113046 0.0138,-0.03321 0.02528,-0.06698 0.03685,-0.100758 0.0056,-0.01665 0.01204,-0.03274 0.0172,-0.04954 0.01395,-0.04526 0.0252,-0.09117 0.03519,-0.137219 0.0017,-0.0056 0.0032,-0.0111 0.0047,-0.01681 1.43e-4,-6.15e-4 1.93e-4,-0.0016 4.1e-4,-0.0024 0.02465,-0.119956 0.0355,-0.241806 0.03361,-0.363719 L 30.805,14.220225 Z"
       style="opacity:1;fill:url(#linearGradient1576);fill-opacity:1;stroke:none;stroke-width:3.35544;stroke-linecap:round;stroke-linejoin:bevel;stroke-miterlimit:4;stroke-dasharray:none;stroke-dashoffset:48.048;stroke-opacity:1;paint-order:stroke markers fill"
       sodipodi:nodetypes="cccccccccccccccccccccccccccccccccccccccccccc" />
    <path
       inkscape:export-ydpi="10.279594"
       inkscape:export-xdpi="10.279594"
       inkscape:connector-curvature="0"
       style="opacity:1;fill:url(#linearGradient1568);fill-opacity:1;stroke:none;stroke-width:3.35544;stroke-linecap:round;stroke-linejoin:bevel;stroke-miterlimit:4;stroke-dasharray:none;stroke-dashoffset:48.048;stroke-opacity:1;paint-order:stroke markers fill"
       d="m 17.384565,7.5093363 v 4.26e-4 c -0.428818,0 -0.857508,0.164541 -1.186091,0.493131 -0.657173,0.657165 -0.657173,1.715025 0,2.3722137 l 1.186091,1.186091 v 0.982973 15.097862 l 5.032697,-5.032775 v -6.70993 -1.677574 -1.677589 h 1.677558 c 0.929375,0 1.677565,0.748197 1.677565,1.677589 v 1.677574 3.354767 l 5.032705,-5.03276 V 12.543744 A 5.0326995,5.0327618 0 0 0 25.772385,7.5109843 h -6.710262 -1.64357 c -0.01133,-2.06e-4 -0.02267,-0.0016 -0.034,-0.0016 z"
       id="path1854-2" />
  </g>
</svg>
