<?xml version="1.0" encoding="UTF-8" standalone="no"?>
<svg
   xmlns:dc="http://purl.org/dc/elements/1.1/"
   xmlns:cc="http://creativecommons.org/ns#"
   xmlns:rdf="http://www.w3.org/1999/02/22-rdf-syntax-ns#"
   xmlns:svg="http://www.w3.org/2000/svg"
   xmlns="http://www.w3.org/2000/svg"
   xmlns:xlink="http://www.w3.org/1999/xlink"
   xmlns:sodipodi="http://sodipodi.sourceforge.net/DTD/sodipodi-0.dtd"
   xmlns:inkscape="http://www.inkscape.org/namespaces/inkscape"
   inkscape:export-ydpi="240.00000"
   inkscape:export-xdpi="240.00000"
   inkscape:export-filename="/home/jimmac/gfx/novell/pdes/trunk/docs/BIGmime-text.png"
   sodipodi:docname="wadfile.svg"
   inkscape:version="1.0 (4035a4f, 2020-05-01)"
   sodipodi:version="0.32"
   id="svg249"
   height="64"
   width="64"
   inkscape:output_extension="org.inkscape.output.svg.inkscape"
   version="1.1">
  <defs
     id="defs3">
    <linearGradient
       id="letter_shadow-6-2-3">
      <stop
         style="stop-color:#494949;stop-opacity:0.60818714"
         offset="0"
         id="stop2177" />
      <stop
         style="stop-color:#1f0925;stop-opacity:0;"
         offset="1"
         id="stop2179" />
    </linearGradient>
    <linearGradient
       inkscape:collect="always"
       id="linearGradient3520">
      <stop
         style="stop-color:#000000;stop-opacity:0.41295547"
         offset="0"
         id="stop3522" />
      <stop
         style="stop-color:#000000;stop-opacity:0;"
         offset="1"
         id="stop3524" />
    </linearGradient>
    <linearGradient
       inkscape:collect="always"
       xlink:href="#linearGradient3520"
       id="linearGradient13786"
       gradientUnits="userSpaceOnUse"
       gradientTransform="matrix(0.5946829,0,0,0.5927814,-62.327355,-48.725799)"
       x1="-18.618725"
       y1="10.211342"
       x2="-30.558546"
       y2="12.189651" />
    <linearGradient
       id="linearGradient3671">
      <stop
         style="stop-color:#ffffff;stop-opacity:1;"
         offset="0"
         id="stop3673" />
      <stop
         id="stop3691"
         offset="0.47533694"
         style="stop-color:#ffffff;stop-opacity:1;" />
      <stop
         style="stop-color:#ffffff;stop-opacity:0;"
         offset="1"
         id="stop3675" />
    </linearGradient>
    <radialGradient
       inkscape:collect="always"
       xlink:href="#linearGradient3671"
       id="radialGradient13784"
       gradientUnits="userSpaceOnUse"
       gradientTransform="matrix(0.2626416,-0.1805803,0.4842474,0.7055033,-76.987986,-55.026495)"
       cx="-26.305403"
       cy="10.108011"
       fx="-26.305403"
       fy="10.108011"
       r="7.0421038" />
    <linearGradient
       inkscape:collect="always"
       id="linearGradient3656">
      <stop
         style="stop-color:#ffffff;stop-opacity:1;"
         offset="0"
         id="stop3658" />
      <stop
         style="stop-color:#ffffff;stop-opacity:0;"
         offset="1"
         id="stop3660" />
    </linearGradient>
    <linearGradient
       inkscape:collect="always"
       xlink:href="#linearGradient3656"
       id="linearGradient13792"
       gradientUnits="userSpaceOnUse"
       gradientTransform="translate(-90,-60)"
       x1="-24.756966"
       y1="9.5694666"
       x2="-22.611664"
       y2="7.4241643" />
    <linearGradient
       inkscape:collect="always"
       id="linearGradient3741">
      <stop
         style="stop-color:#ffffff;stop-opacity:1;"
         offset="0"
         id="stop3743" />
      <stop
         style="stop-color:#ffffff;stop-opacity:0;"
         offset="1"
         id="stop3745" />
    </linearGradient>
    <radialGradient
       inkscape:collect="always"
       xlink:href="#linearGradient3741"
       id="radialGradient13636"
       gradientUnits="userSpaceOnUse"
       gradientTransform="matrix(1.8860258,0,0,1.1764706,-3.5441033,-4.2352941)"
       cx="4"
       cy="5.2999997"
       fx="4"
       fy="5.2999997"
       r="17" />
    <linearGradient
       inkscape:collect="always"
       id="linearGradient3613">
      <stop
         style="stop-color:#888a85;stop-opacity:1"
         offset="0"
         id="stop3615" />
      <stop
         style="stop-color:#babdb6;stop-opacity:1"
         offset="1"
         id="stop3617" />
    </linearGradient>
    <linearGradient
       inkscape:collect="always"
       xlink:href="#linearGradient3613"
       id="linearGradient13634"
       gradientUnits="userSpaceOnUse"
       gradientTransform="translate(-90,-60)"
       x1="-47.5"
       y1="49.020683"
       x2="-62.75"
       y2="-22.502075" />
    <linearGradient
       id="linearGradient3683">
      <stop
         id="stop3685"
         offset="0"
         style="stop-color:#f6f6f5;stop-opacity:1;" />
      <stop
         id="stop3689"
         offset="1"
         style="stop-color:#d3d7cf;stop-opacity:1" />
    </linearGradient>
    <radialGradient
       inkscape:collect="always"
       xlink:href="#linearGradient3683"
       id="radialGradient13632"
       gradientUnits="userSpaceOnUse"
       gradientTransform="matrix(3.9957492,0,0,1.9350367,0.62141,-91.167422)"
       cx="-30.249996"
       cy="35.357208"
       fx="-30.249996"
       fy="35.357208"
       r="18.000002" />
    <linearGradient
       inkscape:collect="always"
       xlink:href="#linearGradient3702"
       id="linearGradient13630"
       gradientUnits="userSpaceOnUse"
       x1="25.058096"
       y1="47.027729"
       x2="25.058096"
       y2="39.999443" />
    <radialGradient
       inkscape:collect="always"
       xlink:href="#linearGradient3688"
       id="radialGradient13628"
       gradientUnits="userSpaceOnUse"
       gradientTransform="matrix(2.003784,0,0,1.4,-20.01187,-104.4)"
       cx="4.9929786"
       cy="43.5"
       fx="4.9929786"
       fy="43.5"
       r="2.5" />
    <radialGradient
       inkscape:collect="always"
       xlink:href="#linearGradient3688"
       id="radialGradient13626"
       gradientUnits="userSpaceOnUse"
       gradientTransform="matrix(2.003784,0,0,1.4,27.98813,-17.4)"
       cx="4.9929786"
       cy="43.5"
       fx="4.9929786"
       fy="43.5"
       r="2.5" />
    <linearGradient
       inkscape:collect="always"
       xlink:href="#linearGradient3702"
       id="linearGradient13624"
       gradientUnits="userSpaceOnUse"
       x1="25.058096"
       y1="47.027729"
       x2="25.058096"
       y2="39.999443" />
    <radialGradient
       inkscape:collect="always"
       xlink:href="#linearGradient3688"
       id="radialGradient13622"
       gradientUnits="userSpaceOnUse"
       gradientTransform="matrix(2.003784,0,0,1.4,-20.01187,-104.4)"
       cx="4.9929786"
       cy="43.5"
       fx="4.9929786"
       fy="43.5"
       r="2.5" />
    <radialGradient
       inkscape:collect="always"
       xlink:href="#linearGradient3688"
       id="radialGradient13620"
       gradientUnits="userSpaceOnUse"
       gradientTransform="matrix(2.003784,0,0,1.4,27.98813,-17.4)"
       cx="4.9929786"
       cy="43.5"
       fx="4.9929786"
       fy="43.5"
       r="2.5" />
    <linearGradient
       id="linearGradient3702">
      <stop
         style="stop-color:black;stop-opacity:0;"
         offset="0"
         id="stop3704" />
      <stop
         id="stop3710"
         offset="0.5"
         style="stop-color:black;stop-opacity:1;" />
      <stop
         style="stop-color:black;stop-opacity:0;"
         offset="1"
         id="stop3706" />
    </linearGradient>
    <linearGradient
       inkscape:collect="always"
       id="linearGradient3688">
      <stop
         style="stop-color:black;stop-opacity:1;"
         offset="0"
         id="stop3690" />
      <stop
         style="stop-color:black;stop-opacity:0;"
         offset="1"
         id="stop3692" />
    </linearGradient>
    <linearGradient
       gradientUnits="userSpaceOnUse"
       y2="-145.38333"
       x2="24.341698"
       y1="-170.78336"
       x1="-1.0583302"
       id="linearGradient1568"
       xlink:href="#letter_top-3"
       inkscape:collect="always"
       gradientTransform="matrix(1.0568326,0,0,1.0568326,14.059269,182.50184)" />
    <linearGradient
       id="letter_top-3">
      <stop
         id="stop1316-6"
         offset="0"
         style="stop-color:#6af3fb;stop-opacity:1" />
      <stop
         id="stop1318-7"
         offset="1"
         style="stop-color:#28629e;stop-opacity:1" />
    </linearGradient>
    <linearGradient
       gradientUnits="userSpaceOnUse"
       y2="-139.03333"
       x2="20.10836"
       y1="-157.53206"
       x1="4.508985"
       id="linearGradient1576"
       xlink:href="#letter_bottom-5"
       inkscape:collect="always"
       gradientTransform="matrix(1.0568326,0,0,1.0568326,14.059269,182.50184)" />
    <linearGradient
       id="letter_bottom-5">
      <stop
         id="stop1332-3"
         offset="0"
         style="stop-color:#ffdf25;stop-opacity:1" />
      <stop
         id="stop1334-5"
         offset="1"
         style="stop-color:#e37a09;stop-opacity:1" />
    </linearGradient>
    <linearGradient
       id="letter_shadow-6-2-3-8">
      <stop
         id="stop2336"
         offset="0"
         style="stop-color:#760794;stop-opacity:1;" />
      <stop
         id="stop2338"
         offset="1"
         style="stop-color:#1f0925;stop-opacity:0;" />
    </linearGradient>
    <linearGradient
       inkscape:collect="always"
       xlink:href="#letter_shadow-6-2-3"
       id="linearGradient2251"
       x1="5.3392448"
       y1="70.946388"
       x2="-22.040627"
       y2="50.196384"
       gradientUnits="userSpaceOnUse"
       gradientTransform="matrix(1.3333333,0,0,1.3333333,42.843475,-54.159458)" />
  </defs>
  <sodipodi:namedview
     fit-margin-bottom="0"
     fit-margin-right="0"
     fit-margin-left="0"
     fit-margin-top="0"
     inkscape:window-y="34"
     inkscape:window-x="272"
     inkscape:window-height="872"
     inkscape:window-width="1048"
     inkscape:document-units="px"
     inkscape:grid-bbox="true"
     showgrid="false"
     inkscape:current-layer="layer5"
     inkscape:cy="29.40358"
     inkscape:cx="32.742302"
     inkscape:zoom="5.6568542"
     inkscape:pageshadow="2"
     inkscape:pageopacity="0.0"
     borderopacity="1"
     bordercolor="#666"
     pagecolor="#ffffff"
     id="base"
     inkscape:showpageshadow="false"
     inkscape:document-rotation="0"
     inkscape:window-maximized="0" />
  <metadata
     id="metadata4">
    <rdf:RDF>
      <cc:Work
         rdf:about="">
        <dc:format>image/svg+xml</dc:format>
        <dc:type
           rdf:resource="http://purl.org/dc/dcmitype/StillImage" />
        <dc:title></dc:title>
        <dc:subject>
          <rdf:Bag>
            <rdf:li>text</rdf:li>
            <rdf:li>plaintext</rdf:li>
            <rdf:li>regular</rdf:li>
            <rdf:li>document</rdf:li>
          </rdf:Bag>
        </dc:subject>
        <cc:license
           rdf:resource="" />
        <dc:creator>
          <cc:Agent>
            <dc:title>Lapo Calamandrei</dc:title>
          </cc:Agent>
        </dc:creator>
        <dc:source />
        <dc:date />
        <dc:rights>
          <cc:Agent>
            <dc:title />
          </cc:Agent>
        </dc:rights>
        <dc:publisher>
          <cc:Agent>
            <dc:title />
          </cc:Agent>
        </dc:publisher>
        <dc:identifier />
        <dc:relation />
        <dc:language />
        <dc:coverage />
        <dc:description />
        <dc:contributor>
          <cc:Agent>
            <dc:title />
          </cc:Agent>
        </dc:contributor>
      </cc:Work>
    </rdf:RDF>
  </metadata>
  <g
     transform="translate(7.999995,7.999998)"
     inkscape:groupmode="layer"
     id="layer6"
     inkscape:label="Shadow" />
  <g
     transform="translate(7.999995,7.999998)"
     style="display:inline"
     inkscape:groupmode="layer"
     inkscape:label="Base"
     id="layer1" />
  <g
     transform="translate(7.999995,7.999998)"
     inkscape:groupmode="layer"
     id="layer5"
     inkscape:label="Text"
     style="display:inline">
    <g
       style="display:inline"
       id="g13794"
       transform="matrix(1.3333333,0,0,1.3333333,192,72)">
      <g
         transform="translate(0,-60)"
         id="g13584"
         style="display:inline">
        <rect
           style="display:inline;opacity:0;fill:#000000;fill-opacity:1;stroke:none;stroke-width:1;stroke-miterlimit:4;stroke-dasharray:none"
           id="rect13586"
           width="48"
           height="48"
           x="-150"
           y="0" />
        <g
           id="g13588">
          <g
             transform="matrix(1.0464281,0,0,0.8888889,-151.18571,5.7222396)"
             inkscape:label="Shadow"
             id="g13590"
             style="display:inline;opacity:0.65587">
            <g
               transform="matrix(1.052632,0,0,1.285713,-1.263158,-13.42854)"
               style="opacity:0.4"
               id="g13592">
              <rect
                 style="opacity:1;fill:url(#radialGradient13620);fill-opacity:1;stroke:none;stroke-width:1;stroke-linecap:round;stroke-linejoin:miter;stroke-miterlimit:4;stroke-dasharray:none;stroke-opacity:1"
                 id="rect13594"
                 width="5"
                 height="7"
                 x="38"
                 y="40" />
              <rect
                 style="opacity:1;fill:url(#radialGradient13622);fill-opacity:1;stroke:none;stroke-width:1;stroke-linecap:round;stroke-linejoin:miter;stroke-miterlimit:4;stroke-dasharray:none;stroke-opacity:1"
                 id="rect13596"
                 width="5"
                 height="7"
                 x="-10"
                 y="-47"
                 transform="scale(-1)" />
              <rect
                 style="opacity:1;fill:url(#linearGradient13624);fill-opacity:1;stroke:none;stroke-width:1;stroke-linecap:round;stroke-linejoin:miter;stroke-miterlimit:4;stroke-dasharray:none;stroke-opacity:1"
                 id="rect13598"
                 width="28"
                 height="7.0000005"
                 x="10"
                 y="40" />
            </g>
          </g>
          <g
             transform="matrix(0.9548466,0,0,0.5555562,-148.98776,19.888875)"
             inkscape:label="Shadow"
             id="g13600"
             style="display:inline">
            <g
               transform="matrix(1.052632,0,0,1.285713,-1.263158,-13.42854)"
               style="opacity:0.4"
               id="g13602">
              <rect
                 style="opacity:1;fill:url(#radialGradient13626);fill-opacity:1;stroke:none;stroke-width:1;stroke-linecap:round;stroke-linejoin:miter;stroke-miterlimit:4;stroke-dasharray:none;stroke-opacity:1"
                 id="rect13604"
                 width="5"
                 height="7"
                 x="38"
                 y="40" />
              <rect
                 style="opacity:1;fill:url(#radialGradient13628);fill-opacity:1;stroke:none;stroke-width:1;stroke-linecap:round;stroke-linejoin:miter;stroke-miterlimit:4;stroke-dasharray:none;stroke-opacity:1"
                 id="rect13606"
                 width="5"
                 height="7"
                 x="-10"
                 y="-47"
                 transform="scale(-1)" />
              <rect
                 style="opacity:1;fill:url(#linearGradient13630);fill-opacity:1;stroke:none;stroke-width:1;stroke-linecap:round;stroke-linejoin:miter;stroke-miterlimit:4;stroke-dasharray:none;stroke-opacity:1"
                 id="rect13608"
                 width="28"
                 height="7.0000005"
                 x="10"
                 y="40" />
            </g>
          </g>
          <path
             sodipodi:nodetypes="cccccccscc"
             id="path13610"
             transform="translate(0,60)"
             d="m -141.46875,-56.5 c -1.12122,0 -2.03125,0.910034 -2.03125,2.03125 v 36.9375 c 0,1.121217 0.91003,2.03125 2.03125,2.03125 h 30.9375 c 1.12121,0 2.03125,-0.910034 2.03125,-2.03125 0,-9.916667 0,-19.833333 0,-29.75 -0.25793,-2.465585 -1.63765,-4.292626 -3.28125,-5.9375 -1.6436,-1.644875 -3.38857,-3.233257 -5.9375,-3.28125 -7.91667,0 -15.83333,0 -23.75,0 z"
             style="display:inline;fill:url(#radialGradient13632);fill-opacity:1;stroke:url(#linearGradient13634);stroke-width:1;stroke-miterlimit:4" />
          <path
             transform="translate(-150)"
             d="m 8.53125,3.9863281 c -0.8581697,0 -1.5449219,0.6867521 -1.5449219,1.5449219 v 36.9375 c 0,0.85817 0.6867521,1.544922 1.5449219,1.544922 h 30.9375 c 0.858169,0 1.544922,-0.686754 1.544922,-1.544922 V 17.5 c 0,-1.39197 -0.500651,-4.299479 -2.357422,-6.15625 l -5,-5 C 31.799479,4.4869792 28.89197,3.9863281 27.5,3.9863281 Z"
             id="path13612"
             style="display:inline;opacity:0.680162;fill:url(#radialGradient13636);fill-opacity:1;stroke:none;stroke-width:1;stroke-miterlimit:4"
             inkscape:original="M 8.53125 3.5 C 7.410033 3.5 6.5 4.4100329 6.5 5.53125 L 6.5 42.46875 C 6.5 43.589967 7.4100329 44.5 8.53125 44.5 L 39.46875 44.5 C 40.589967 44.5 41.5 43.589966 41.5 42.46875 C 41.5 42.46875 41.5 19 41.5 17.5 C 41.5 16 41 13 39 11 C 37 9 36 8 34 6 C 32 4 29 3.5 27.5 3.5 C 26 3.5 8.5312499 3.5 8.53125 3.5 z "
             inkscape:radius="-0.4861359"
             sodipodi:type="inkscape:offset" />
          <path
             id="path13618"
             transform="translate(0,60)"
             d="m -141.46875,-55.5 c -0.58317,0 -1.03125,0.448084 -1.03125,1.03125 v 36.9375 c 0,0.583165 0.44809,1.03125 1.03125,1.03125 h 30.9375 c 0.58317,0 1.03125,-0.448086 1.03125,-1.03125 0,0 0,-23.46875 0,-24.96875 0,-0.106586 -0.0242,-0.279716 -0.0312,-0.40625 0,-1.751998 0,-4.11182 0,-4.375 0,-0.757379 -0.33297,-2.519686 -1.34375,-3.53125 -1.31488,-1.315898 -1.96637,-1.9966 -3.28125,-3.3125 -1.01079,-1.011562 -2.8057,-1.34375 -3.5625,-1.34375 -0.34602,0 -2.39357,0 -4.375,0 -0.12653,-0.0071 -0.29966,-0.03125 -0.40625,-0.03125 -1.5,0 -18.96875,0 -18.96875,0 z"
             style="display:inline;fill:none;fill-opacity:1;stroke:url(#linearGradient13792);stroke-width:1;stroke-miterlimit:4" />
        </g>
      </g>
      <g
         transform="translate(-36.006942,-8.993441)"
         id="g13771">
        <path
           style="display:inline;fill:url(#radialGradient13784);fill-opacity:1;stroke:none;stroke-width:1;stroke-miterlimit:4"
           d="m -81.704642,-47 c -0.895526,0 -0.02712,0.320785 0.866422,0.725993 0.893546,0.405209 2.364764,1.912143 1.83822,4.274007 4.56932,-0.707107 5.148198,2.177572 5.355088,2.925424 0.206889,0.747851 0.644778,1.68278 0.644778,0.786492 0.01827,-2.455844 -1.83467,-4.150551 -3.123145,-5.586113 -1.288476,-1.435561 -3.225477,-2.818136 -5.581363,-3.125803 z"
           id="path13676"
           sodipodi:nodetypes="ccccczc" />
        <path
           style="display:inline;opacity:0.878542;fill:url(#linearGradient13786);fill-opacity:1;stroke:none;stroke-width:1;stroke-miterlimit:4"
           d="M -80.994821,-46.345411 C -80.400137,-46.345411 -80,-42.5 -80,-40 c 3,0 5.70366,0.451814 6,1 -0.20689,-0.747852 -0.538563,-3.773398 -5,-3 0.557517,-2.500797 -1.212993,-4.107705 -1.994821,-4.345411 z"
           id="path13678"
           sodipodi:nodetypes="ccccc" />
      </g>
    </g>
    <path
       id="path1854-2-5"
       style="display:inline;opacity:0.422222;fill:url(#linearGradient2251);fill-opacity:1;stroke:none;stroke-width:4.47392;stroke-linecap:round;stroke-linejoin:bevel;stroke-miterlimit:4;stroke-dasharray:none;stroke-dashoffset:48.048;stroke-opacity:1;paint-order:stroke markers fill"
       d="m 14.872121,0.1895004 c -2.973944,0.11606667 -5.261977,3.3268756 -4.38802,6.1744783 0.289363,1.2229573 1.176116,2.1534653 2.065104,2.9843746 0.02188,11.4389017 -0.04373,22.8807507 0.03275,34.3178137 0.247295,2.941524 3.516995,5.096597 6.318921,4.125645 2.043887,-0.667317 3.226387,-2.633484 4.785211,-3.985809 3.671809,-3.715247 7.435436,-7.345879 11.050569,-11.113283 0.622646,-0.851939 -0.339874,0.348357 0.578178,-0.935512 0.240954,-0.505701 0.392305,-1.053412 0.416666,-1.614584 -0.01735,0.804356 0.0918,-1.145615 0.04688,-1.558853 C 35.74917,21.945897 35.83677,15.304263 35.73469,8.668728 35.399345,4.165608 31.398258,0.3327724 26.884811,0.1904484 23.011207,0.1638217 19.136707,0.1867154 15.262759,0.1791151 c 0.227867,0.004133 -0.370284,-0.0036 -0.390625,0.0104 z" />
    <path
       sodipodi:nodetypes="cccccccccccccccccccccccccccccccccccccccccccc"
       style="opacity:1;fill:url(#linearGradient1576);fill-opacity:1;stroke:none;stroke-width:4.47392;stroke-linecap:round;stroke-linejoin:bevel;stroke-miterlimit:4;stroke-dasharray:none;stroke-dashoffset:48.048;stroke-opacity:1;paint-order:stroke markers fill"
       d="m 26.362567,17.671185 -8.54e-4,6.71074 -4.473498,4.473804 4.2e-4,-6.710622 -6.710887,6.710898 2.12e-4,13.385671 c -0.0021,0.16254 0.012,0.325019 0.04481,0.484948 0.0021,0.0084 0.0053,0.01657 0.0064,0.02516 0.01333,0.06151 0.02832,0.122627 0.04692,0.182936 0.0073,0.0224 0.01543,0.04397 0.02293,0.06605 0.01543,0.04512 0.03076,0.09015 0.04915,0.134366 0.02124,0.05147 0.04555,0.101466 0.07049,0.150737 0.0053,0.01093 0.0095,0.0224 0.01585,0.03329 0.210299,0.400475 0.537716,0.727924 0.93816,0.938236 0.01093,0.0053 0.02231,0.01053 0.03329,0.01585 0.04936,0.02493 0.09935,0.04925 0.150726,0.07049 0.04428,0.0184 0.08931,0.03371 0.134334,0.04913 0.02208,0.0075 0.04365,0.01605 0.06605,0.02292 0.06035,0.01859 0.121573,0.03351 0.182938,0.04692 0.0084,0.0023 0.01659,0.0053 0.02515,0.0063 0.296557,0.06088 0.6023,0.06088 0.898847,0 0.0084,-0.0023 0.01671,-0.0043 0.02515,-0.0063 0.0614,-0.01341 0.122627,-0.02832 0.182938,-0.04692 0.0224,-0.0063 0.04396,-0.01544 0.06605,-0.02292 0.04513,-0.01544 0.09015,-0.03075 0.134345,-0.04913 0.05136,-0.02125 0.101347,-0.04545 0.150715,-0.07049 0.01093,-0.0053 0.02251,-0.01053 0.03329,-0.01585 0.214495,-0.112653 0.407388,-0.259272 0.573386,-0.43253 l 3.89684,-3.8971 2.396197,-2.395828 c 0.0021,-0.0023 0.0032,-0.0043 0.0053,-0.0053 l 7.054827,-7.055326 c 0.173259,-0.165996 0.319849,-0.358902 0.432497,-0.573404 5.47e-4,-8.2e-4 0.0012,-0.0021 0.0023,-0.0032 0.0053,-0.0095 0.0095,-0.02051 0.01416,-0.03053 0.02493,-0.04936 0.04913,-0.09935 0.07048,-0.150728 0.0184,-0.04428 0.03371,-0.08931 0.04913,-0.134344 0.0075,-0.0222 0.01605,-0.04365 0.02293,-0.06605 0.0186,-0.06035 0.0336,-0.12156 0.04692,-0.182959 0.0023,-0.0075 0.0043,-0.0148 0.0063,-0.02241 1.91e-4,-8.2e-4 2.58e-4,-0.0021 5.47e-4,-0.0032 0.03287,-0.159941 0.04733,-0.322408 0.04481,-0.484959 L 33.073333,10.9603 Z"
       id="path1852"
       inkscape:connector-curvature="0"
       inkscape:export-xdpi="10.279594"
       inkscape:export-ydpi="10.279594" />
    <path
       id="path1854-2"
       d="m 15.17942,2.0124484 v 5.68e-4 c -0.571757,0 -1.143344,0.219388 -1.581455,0.657508 -0.87623,0.87622 -0.87623,2.2867 0,3.1629516 L 15.17942,7.4149307 V 8.7255613 28.856044 l 6.710263,-6.710367 V 13.199104 10.962339 8.7255533 h 2.236744 c 1.239166,0 2.236753,0.997596 2.236753,2.2367857 v 2.236765 4.473023 L 33.073453,10.96178 V 8.724992 A 6.710266,6.7103491 0 0 0 26.36318,2.0146457 h -8.947016 -2.191427 c -0.01511,-2.746e-4 -0.03023,-0.00213 -0.04533,-0.00213 z"
       style="opacity:1;fill:url(#linearGradient1568);fill-opacity:1;stroke:none;stroke-width:4.47392;stroke-linecap:round;stroke-linejoin:bevel;stroke-miterlimit:4;stroke-dasharray:none;stroke-dashoffset:48.048;stroke-opacity:1;paint-order:stroke markers fill"
       inkscape:connector-curvature="0"
       inkscape:export-xdpi="10.279594"
       inkscape:export-ydpi="10.279594" />
  </g>
</svg>
